<?xml version="1.0" encoding="UTF-8"?>
<!DOCTYPE svg PUBLIC "-//W3C//DTD SVG 1.1//EN" "http://www.w3.org/Graphics/SVG/1.1/DTD/svg11.dtd">
<!-- Creator: CorelDRAW 2019 (64-Bit) -->
<svg xmlns="http://www.w3.org/2000/svg" xml:space="preserve" width="589px" height="171px" version="1.1" style="shape-rendering:geometricPrecision; text-rendering:geometricPrecision; image-rendering:optimizeQuality; fill-rule:evenodd; clip-rule:evenodd"
viewBox="0 0 589 170.81"
 xmlns:xlink="http://www.w3.org/1999/xlink">
 <defs>
  <style type="text/css">
   <![CDATA[
    .fil2 {fill:none}
    .fil0 {fill:white}
    .fil1 {fill:white;fill-rule:nonzero}
   ]]>
  </style>
 </defs>
 <g id="Layer_x0020_1">
  <metadata id="CorelCorpID_0Corel-Layer"/>
  <g id="_2147979902768">
   <path class="fil0" d="M85.473 56.512c30.193,10.322 46.303,43.166 35.981,73.36 -10.322,30.193 -43.166,46.302 -73.359,35.98 -30.194,-10.321 -46.303,-43.166 -35.981,-73.359 0.089,-0.261 0.18,-0.52 0.272,-0.779l-0.005 -0.002 27.707 -81.049c9.391,-2.503 19.182,-3.706 29.101,-3.474l-16.385 47.93c0.224,-0.056 0.449,-0.111 0.674,-0.164l0.524 -0.122c0.283,-0.065 0.567,-0.127 0.851,-0.187l0.515 -0.107c0.287,-0.058 0.574,-0.113 0.862,-0.167l0.439 -0.08c0.319,-0.057 0.638,-0.112 0.958,-0.163l0.445 -0.07c0.338,-0.052 0.676,-0.101 1.015,-0.147l0.309 -0.041c0.359,-0.046 0.718,-0.089 1.078,-0.129l0.195 -0.021c0.458,-0.049 0.915,-0.092 1.374,-0.13l0.13 -0.011c0.381,-0.031 0.762,-0.058 1.144,-0.081l0.114 -0.006c0.917,-0.054 1.838,-0.086 2.761,-0.095l0.045 -0.001c6.372,-0.061 12.863,0.937 19.236,3.115zm46.703 -36.203c7.984,5.889 14.99,12.832 20.884,20.561l-17.107 50.039c-2.447,-12.183 -8.261,-23.505 -16.768,-32.599l12.991 -38.001zm-29.326 -13.799c4.233,1.447 8.312,3.141 12.227,5.058l-12.169 35.596c-3.763,-2.19 -7.795,-4.046 -12.073,-5.508 -4.278,-1.463 -8.602,-2.464 -12.919,-3.036l12.169 -35.595c4.269,0.88 8.532,2.038 12.765,3.485zm-43.201 74.129c-0.44,0.103 -0.877,0.215 -1.311,0.337l-0.005 0.002c-1.007,0.282 -1.996,0.614 -2.967,0.994l-0.056 0.022c-0.41,0.161 -0.816,0.331 -1.218,0.509l-0.036 0.016c-0.25,0.111 -0.499,0.226 -0.746,0.344l-0.084 0.04c-0.39,0.186 -0.776,0.381 -1.157,0.584l-0.074 0.039c-0.218,0.117 -0.436,0.237 -0.652,0.359l-0.137 0.077c-0.235,0.135 -0.468,0.272 -0.699,0.412l-0.032 0.019c-0.11,0.067 -0.22,0.135 -0.329,0.203l-0.166 0.105c-0.185,0.118 -0.37,0.237 -0.553,0.358l-0.151 0.101c-0.166,0.111 -0.331,0.225 -0.495,0.34l-0.201 0.14c-0.098,0.071 -0.197,0.142 -0.295,0.214l-0.205 0.151c-0.148,0.11 -0.296,0.221 -0.442,0.334l-0.23 0.177 -0.262 0.207c-0.129,0.104 -0.258,0.209 -0.386,0.315l-0.233 0.195 -0.277 0.237c-0.11,0.095 -0.218,0.19 -0.326,0.286l-0.261 0.234 -0.224 0.205c-0.129,0.12 -0.257,0.24 -0.384,0.362l-0.204 0.198c-0.106,0.104 -0.212,0.208 -0.317,0.314l-0.202 0.205c-0.105,0.108 -0.21,0.217 -0.314,0.326l-0.19 0.201c-0.127,0.137 -0.253,0.274 -0.378,0.413l-0.15 0.169c-0.12,0.135 -0.24,0.272 -0.358,0.41l-0.109 0.128c-0.125,0.147 -0.247,0.295 -0.369,0.445l-0.111 0.136c-0.13,0.161 -0.258,0.323 -0.385,0.487l-0.12 0.157c-0.125,0.164 -0.248,0.328 -0.37,0.495l-0.033 0.045c-0.13,0.178 -0.258,0.358 -0.384,0.539l-0.086 0.123c-0.124,0.18 -0.247,0.362 -0.368,0.546l-0.081 0.123c-0.116,0.178 -0.231,0.357 -0.343,0.537l-0.041 0.065c-0.116,0.189 -0.231,0.379 -0.344,0.57l-0.074 0.125c-0.113,0.193 -0.224,0.388 -0.333,0.584l-0.061 0.11c-0.111,0.202 -0.221,0.405 -0.328,0.611l-0.011 0.02c-0.107,0.204 -0.211,0.411 -0.314,0.619l-0.068 0.138c-0.098,0.201 -0.194,0.404 -0.288,0.608l-0.06 0.131c-0.094,0.207 -0.187,0.416 -0.278,0.626l-0.012 0.028c-0.315,0.732 -0.603,1.482 -0.865,2.248 -5.603,16.391 3.141,34.22 19.532,39.823 16.391,5.604 34.221,-3.142 39.824,-19.532 5.603,-16.391 -3.142,-34.22 -19.533,-39.823 -5.781,-1.977 -11.74,-2.166 -17.28,-0.866z"/>
   <g>
    <path class="fil1" d="M169.624 73.15l38.674 0c0.585,0 0.879,0.293 0.879,0.879l0 10.767c0,0.683 -0.196,1.294 -0.587,1.831l-9.375 12.158 9.375 12.159c0.391,0.538 0.587,1.148 0.587,1.831l0 10.767c0,0.586 -0.294,0.879 -0.879,0.879l-38.674 0c-0.244,0 -0.451,-0.085 -0.622,-0.256 -0.171,-0.171 -0.257,-0.379 -0.257,-0.623l0 -49.513c0,-0.244 0.086,-0.452 0.257,-0.623 0.171,-0.171 0.378,-0.256 0.622,-0.256zm29.958 41.969l-12.086 -15.747c-0.244,-0.391 -0.244,-0.757 0,-1.099l12.086 -15.821 -21.462 0 0 32.667 21.462 0z"/>
    <path class="fil1" d="M219.725 73.883c0,-0.245 0.085,-0.452 0.256,-0.623 0.171,-0.171 0.378,-0.256 0.622,-0.256l38.674 0c0.244,0 0.452,0.085 0.622,0.256 0.171,0.171 0.257,0.378 0.257,0.623l0 10.766c0,0.684 -0.22,1.294 -0.66,1.832l-11.572 15.161 16.553 21.607c0.147,0.245 0.159,0.477 0.037,0.696 -0.122,0.22 -0.306,0.33 -0.55,0.33l-9.302 0c-0.976,0 -1.782,-0.391 -2.417,-1.172l-16.04 -20.875c-0.342,-0.39 -0.342,-0.757 0,-1.099l14.429 -18.824 -21.534 0 0 41.091c0,0.586 -0.318,0.879 -0.952,0.879l-7.545 0c-0.244,0 -0.451,-0.085 -0.622,-0.257 -0.171,-0.17 -0.256,-0.378 -0.256,-0.622l0 -49.513z"/>
    <path class="fil1" d="M271.362 73.15l33.913 0c0.293,0 0.5,0.11 0.623,0.329 0.121,0.22 0.085,0.452 -0.11,0.696l-5.421 7.105c-0.634,0.781 -1.44,1.172 -2.417,1.172l-18.091 0 0 11.719 18.311 0c0.586,0 0.879,0.293 0.879,0.879l0 7.471c0,0.635 -0.293,0.952 -0.879,0.952l-18.311 0 0 11.646 23.145 0c0.245,0 0.452,0.086 0.623,0.257 0.171,0.17 0.256,0.378 0.256,0.622l0 7.544c0,0.586 -0.293,0.879 -0.879,0.879l-31.642 0c-0.244,0 -0.451,-0.085 -0.622,-0.256 -0.171,-0.171 -0.256,-0.379 -0.256,-0.623l0 -49.513c0,-0.244 0.085,-0.452 0.256,-0.623 0.171,-0.171 0.378,-0.256 0.622,-0.256z"/>
    <path class="fil1" d="M395.586 73.004l-9.302 0c-0.977,0 -1.783,0.39 -2.417,1.171l-26.369 34.279 0 -34.571c0,-0.245 -0.085,-0.452 -0.256,-0.623 -0.171,-0.171 -0.378,-0.256 -0.623,-0.256l-6.958 0c-0.976,0 -1.782,0.39 -2.417,1.171l-26.295 34.279 0 -34.571c0,-0.245 -0.097,-0.452 -0.293,-0.623 -0.195,-0.171 -0.415,-0.256 -0.659,-0.256l-7.544 0c-0.244,0 -0.452,0.085 -0.623,0.256 -0.171,0.171 -0.256,0.378 -0.256,0.623l0 49.513c0,0.586 0.293,0.879 0.879,0.879l6.958 0c0.977,0 1.782,-0.391 2.417,-1.172l26.368 -34.278 0 34.571c0,0.586 0.293,0.879 0.879,0.879l6.958 0c0.977,0 1.783,-0.391 2.417,-1.172l37.649 -49.074c0.195,-0.196 0.219,-0.415 0.073,-0.659 -0.147,-0.245 -0.342,-0.366 -0.586,-0.366z"/>
    <path class="fil0" d="M386.181 123.543l0 -29.467c3.089,-3.188 6.584,-6.978 9.376,-10.653l0 10.749 21.021 0 0 -20.143c0,-0.244 0.085,-0.452 0.256,-0.623 0.172,-0.17 0.379,-0.256 0.623,-0.256l7.618 0c0.243,0 0.451,0.086 0.622,0.256 0.171,0.171 0.257,0.379 0.257,0.623l0 49.514c0,0.244 -0.086,0.451 -0.257,0.622 -0.171,0.171 -0.379,0.257 -0.622,0.257l-7.618 0c-0.244,0 -0.451,-0.086 -0.623,-0.257 -0.171,-0.171 -0.256,-0.378 -0.256,-0.622l0 -20.07 -21.021 0 0 20.07c0,0.586 -0.318,0.879 -0.952,0.879l-7.545 0c-0.244,0 -0.451,-0.086 -0.623,-0.257 -0.17,-0.171 -0.256,-0.378 -0.256,-0.622z"/>
    <path class="fil1" d="M434.45 98.566c0,-3.76 0.696,-7.263 2.088,-10.511 1.391,-3.247 3.271,-6.055 5.639,-8.423 2.369,-2.368 5.164,-4.224 8.387,-5.567 3.223,-1.342 6.69,-1.989 10.401,-1.941 3.711,0.049 7.178,0.782 10.4,2.198 3.223,1.416 6.019,3.345 8.387,5.786 2.368,2.442 4.236,5.286 5.603,8.533 1.368,3.247 2.027,6.702 1.978,10.364 -0.049,3.711 -0.781,7.178 -2.198,10.401 -1.416,3.223 -3.332,6.03 -5.749,8.423 -2.417,2.393 -5.237,4.261 -8.46,5.603 -3.223,1.343 -6.69,2.015 -10.401,2.015 -3.662,0 -7.092,-0.696 -10.291,-2.088 -3.198,-1.391 -5.969,-3.296 -8.313,-5.713 -2.344,-2.417 -4.175,-5.261 -5.493,-8.533 -1.319,-3.271 -1.978,-6.787 -1.978,-10.547zm9.375 0.366c0,2.393 0.464,4.663 1.392,6.812 0.928,2.148 2.173,4.028 3.736,5.64 1.562,1.611 3.369,2.881 5.42,3.808 2.051,0.928 4.248,1.392 6.592,1.392 2.295,-0.049 4.468,-0.561 6.518,-1.538 2.051,-0.977 3.846,-2.283 5.384,-3.918 1.538,-1.636 2.747,-3.541 3.626,-5.714 0.879,-2.173 1.294,-4.455 1.245,-6.848 0,-2.393 -0.464,-4.663 -1.392,-6.812 -0.928,-2.149 -2.173,-4.016 -3.735,-5.603 -1.563,-1.587 -3.382,-2.844 -5.457,-3.772 -2.075,-0.928 -4.261,-1.392 -6.556,-1.392 -2.295,0.049 -4.468,0.549 -6.518,1.502 -2.051,0.952 -3.833,2.246 -5.347,3.882 -1.514,1.635 -2.71,3.528 -3.589,5.676 -0.879,2.149 -1.319,4.444 -1.319,6.885z"/>
    <path class="fil1" d="M494.365 88.165c0,-2.295 0.476,-4.419 1.428,-6.372 0.953,-1.953 2.247,-3.638 3.882,-5.054 1.636,-1.416 3.541,-2.539 5.713,-3.369 2.173,-0.831 4.481,-1.246 6.922,-1.246 3.809,0 7.117,0.672 9.925,2.015 2.807,1.343 4.92,2.893 6.335,4.651 0.342,0.439 0.318,0.83 -0.073,1.172l-5.054 5.273c-0.195,0.196 -0.427,0.293 -0.696,0.293 -0.268,0 -0.5,-0.122 -0.695,-0.366 -0.44,-0.488 -0.989,-0.976 -1.648,-1.465 -0.66,-0.488 -1.416,-0.94 -2.271,-1.355 -0.854,-0.415 -1.77,-0.744 -2.747,-0.988 -0.976,-0.245 -1.977,-0.367 -3.003,-0.367 -1.22,0 -2.331,0.183 -3.332,0.549 -1.001,0.367 -1.844,0.843 -2.527,1.429 -0.684,0.586 -1.221,1.269 -1.612,2.051 -0.39,0.781 -0.585,1.611 -0.585,2.49 0,1.416 0.463,2.637 1.391,3.662 0.928,1.025 2.319,1.734 4.175,2.124l7.178 1.392c2.344,0.439 4.407,1.135 6.189,2.087 1.782,0.953 3.272,2.088 4.468,3.406 1.196,1.319 2.112,2.796 2.747,4.432 0.635,1.635 0.952,3.357 0.952,5.163 0,1.954 -0.403,3.882 -1.209,5.787 -0.805,1.904 -2.002,3.613 -3.588,5.127 -1.588,1.514 -3.528,2.722 -5.823,3.625 -2.295,0.904 -4.932,1.355 -7.911,1.355 -2.1,0 -4.065,-0.219 -5.896,-0.659 -1.831,-0.439 -3.492,-1.013 -4.981,-1.721 -1.489,-0.708 -2.795,-1.489 -3.918,-2.344 -1.124,-0.854 -2.051,-1.697 -2.784,-2.527 -0.342,-0.341 -0.342,-0.732 0,-1.172l4.615 -5.933c0.146,-0.244 0.354,-0.378 0.622,-0.402 0.269,-0.025 0.501,0.061 0.696,0.256 0.684,0.635 1.441,1.282 2.271,1.941 0.83,0.659 1.733,1.257 2.71,1.795 0.976,0.536 2.026,0.976 3.149,1.318 1.123,0.342 2.32,0.513 3.589,0.513 2.686,0 4.737,-0.586 6.153,-1.758 1.416,-1.172 2.124,-2.686 2.124,-4.541 0,-1.465 -0.525,-2.747 -1.575,-3.846 -1.05,-1.098 -2.6,-1.843 -4.651,-2.234l-7.178 -1.465c-4.102,-0.83 -7.373,-2.514 -9.815,-5.054 -2.441,-2.539 -3.662,-5.762 -3.662,-9.668z"/>
    <path class="fil1" d="M539.427 73.883c0,-0.245 0.086,-0.452 0.257,-0.623 0.171,-0.171 0.378,-0.256 0.622,-0.256l31.789 0c0.976,0 1.782,0.39 2.417,1.171l5.42 7.105c0.195,0.244 0.232,0.476 0.11,0.696 -0.122,0.22 -0.33,0.329 -0.623,0.329l-16.333 0 0 41.091c0,0.586 -0.293,0.879 -0.879,0.879l-7.544 0c-0.586,0 -0.88,-0.293 -0.88,-0.879l0 -41.091 -13.477 0c-0.244,0 -0.451,-0.085 -0.622,-0.256 -0.171,-0.171 -0.257,-0.378 -0.257,-0.622l0 -7.544z"/>
   </g>
   <rect class="fil2" x="-0.75" y="0.595" width="589.5" height="170.808"/>
  </g>
 </g>
</svg>
