<?xml version="1.0" encoding="UTF-8"?>
<!DOCTYPE svg PUBLIC "-//W3C//DTD SVG 1.1//EN" "http://www.w3.org/Graphics/SVG/1.1/DTD/svg11.dtd">
<!-- Creator: CorelDRAW 2019 (64-Bit) -->
<svg xmlns="http://www.w3.org/2000/svg" xml:space="preserve" width="512px" height="360px" version="1.1" style="shape-rendering:geometricPrecision; text-rendering:geometricPrecision; image-rendering:optimizeQuality; fill-rule:evenodd; clip-rule:evenodd"
viewBox="0 0 512 359.999"
 xmlns:xlink="http://www.w3.org/1999/xlink">
 <defs>
  <style type="text/css">
   <![CDATA[
    .str0 {stroke:#53CBD8;stroke-width:0.216;stroke-miterlimit:22.9256;stroke-opacity:0.301961}
    .str1 {stroke:#262324;stroke-width:0.702;stroke-miterlimit:22.9256}
    .fil28 {fill:#0A6DAE}
    .fil23 {fill:#E7F3F3}
    .fil26 {fill:#F5C183}
    .fil25 {fill:#FFDDAE}
    .fil9 {fill:#0A6DAE;fill-rule:nonzero}
    .fil27 {fill:#0A6DAE;fill-rule:nonzero}
    .fil21 {fill:#181F3D;fill-rule:nonzero}
    .fil14 {fill:#366D6B;fill-rule:nonzero}
    .fil16 {fill:#447575;fill-rule:nonzero}
    .fil17 {fill:#52908A;fill-rule:nonzero}
    .fil11 {fill:#53CBD8;fill-rule:nonzero}
    .fil1 {fill:#5989C6;fill-rule:nonzero}
    .fil15 {fill:#5D9A99;fill-rule:nonzero}
    .fil2 {fill:#8ABFF6;fill-rule:nonzero}
    .fil22 {fill:#ACD6D4;fill-rule:nonzero}
    .fil24 {fill:#CA3F4D;fill-rule:nonzero}
    .fil18 {fill:#DB952F;fill-rule:nonzero}
    .fil7 {fill:#DDA7AF;fill-rule:nonzero}
    .fil20 {fill:#E4B559;fill-rule:nonzero}
    .fil4 {fill:#E9BC31;fill-rule:nonzero}
    .fil19 {fill:#F4C67E;fill-rule:nonzero}
    .fil6 {fill:#F6BAC2;fill-rule:nonzero}
    .fil13 {fill:white;fill-rule:nonzero}
    .fil10 {fill:#0A6DAE;fill-rule:nonzero;fill-opacity:0.301961}
    .fil3 {fill:#496B8E;fill-rule:nonzero;fill-opacity:0.301961}
    .fil12 {fill:#53CBD8;fill-rule:nonzero;fill-opacity:0.301961}
    .fil5 {fill:#DB952F;fill-rule:nonzero;fill-opacity:0.301961}
    .fil0 {fill:#53CBD8;fill-rule:nonzero;fill-opacity:0.400000}
    .fil8 {fill:white;fill-rule:nonzero;fill-opacity:0.701961}
   ]]>
  </style>
    <mask id="id0">
  <linearGradient id="id1" gradientUnits="userSpaceOnUse" x1="362.856" y1="163.168" x2="372.936" y2="155.21">
   <stop offset="0" style="stop-opacity:1; stop-color:white"/>
   <stop offset="1" style="stop-opacity:0; stop-color:white"/>
  </linearGradient>
     <rect style="fill:url(#id1)" x="359.683" y="153.397" width="12.506" height="15.59"/>
    </mask>
    <mask id="id2">
  <linearGradient id="id3" gradientUnits="userSpaceOnUse" x1="269.604" y1="142.584" x2="274.617" y2="139.746">
   <stop offset="0" style="stop-opacity:1; stop-color:white"/>
   <stop offset="1" style="stop-opacity:0; stop-color:white"/>
  </linearGradient>
     <rect style="fill:url(#id3)" x="268.49" y="137.679" width="5.655" height="9.232"/>
    </mask>
    <mask id="id4">
  <linearGradient id="id5" gradientUnits="userSpaceOnUse" x1="224.725" y1="90.34" x2="226.557" y2="87.521">
   <stop offset="0" style="stop-opacity:1; stop-color:white"/>
   <stop offset="1" style="stop-opacity:0; stop-color:white"/>
  </linearGradient>
     <rect style="fill:url(#id5)" x="223.853" y="86.245" width="3.077" height="6.903"/>
    </mask>
    <mask id="id6">
  <linearGradient id="id7" gradientUnits="userSpaceOnUse" x1="150.839" y1="80.238" x2="155.875" y2="76.262">
   <stop offset="0" style="stop-opacity:1; stop-color:white"/>
   <stop offset="1" style="stop-opacity:0; stop-color:white"/>
  </linearGradient>
     <rect style="fill:url(#id7)" x="149.003" y="75.106" width="6.749" height="8.29"/>
    </mask>
    <mask id="id8">
  <linearGradient id="id9" gradientUnits="userSpaceOnUse" x1="163.352" y1="145.092" x2="167.484" y2="142.344">
   <stop offset="0" style="stop-opacity:1; stop-color:white"/>
   <stop offset="1" style="stop-opacity:0; stop-color:white"/>
  </linearGradient>
     <rect style="fill:url(#id9)" x="162.109" y="140.93" width="5.191" height="7.307"/>
    </mask>
    <mask id="id10">
  <linearGradient id="id11" gradientUnits="userSpaceOnUse" x1="237.235" y1="281.783" x2="237.896" y2="278.006">
   <stop offset="0" style="stop-opacity:1; stop-color:white"/>
   <stop offset="1" style="stop-opacity:0; stop-color:white"/>
  </linearGradient>
     <rect style="fill:url(#id11)" x="235.506" y="277.332" width="4.347" height="6.508"/>
    </mask>
 </defs>
 <g id="Layer_x0020_1">
  <metadata id="CorelCorpID_0Corel-Layer"/>
  <g id="_2109257401536">
   <path class="fil0" d="M114.774 98.362c0,0 1.553,-58.507 76.11,-64.203 74.558,-5.695 68.345,61.614 68.345,61.614 0,0 23.299,-16.568 43.492,-7.249 20.193,9.32 15.015,30.548 15.015,30.548 0,0 13.979,-9.32 32.619,-8.284 18.639,1.035 16.05,22.781 16.05,22.781 0,0 64.721,-47.634 101.482,-2.071 36.761,45.563 -1.554,96.304 -1.554,96.304 0,0 8.802,17.086 1.036,33.654 -7.767,16.569 -21.228,17.087 -21.228,17.087 0,0 -0.518,47.116 -56.954,47.633 -56.436,0.518 -77.665,-33.136 -77.665,-33.136 0,0 -15.532,18.121 -39.867,10.873 -24.335,-7.249 -26.406,-23.817 -26.406,-23.817 0,0 -49.187,39.867 -113.389,25.888 -64.203,-13.98 -66.792,-63.685 -66.792,-63.685 0,0 -60.06,-1.553 -58.507,-44.527 1.554,-42.975 51.777,-53.33 51.777,-53.33 0,0 -2.071,-46.598 56.436,-46.08z"/>
   <path class="fil0" d="M136.471 111.945c0,0 1.296,-48.772 63.448,-53.52 62.152,-4.748 56.972,51.362 56.972,51.362 0,0 19.423,-13.812 36.256,-6.043 16.833,7.77 12.517,25.466 12.517,25.466 0,0 11.653,-7.769 27.191,-6.906 15.539,0.863 13.381,18.991 13.381,18.991 0,0 53.951,-39.709 84.596,-1.727 30.644,37.982 -1.295,80.28 -1.295,80.28 0,0 7.337,14.243 0.863,28.055 -6.474,13.812 -17.696,14.243 -17.696,14.243 0,0 -0.432,39.277 -47.477,39.709 -47.046,0.431 -64.743,-27.623 -64.743,-27.623 0,0 -12.948,15.106 -33.234,9.063 -20.285,-6.042 -22.012,-19.854 -22.012,-19.854 0,0 -41.003,33.234 -94.523,21.581 -53.52,-11.654 -55.678,-53.089 -55.678,-53.089 0,0 -50.067,-1.295 -48.772,-37.118 1.294,-35.824 43.161,-44.457 43.161,-44.457 0,0 -1.727,-38.844 47.045,-38.413z"/>
  </g>
  <g id="_2109257394816">
   <g>
    <path class="fil1" d="M462.323 170.452c0,49.595 -40.206,89.801 -89.802,89.801 -49.596,0 -89.801,-40.206 -89.801,-89.801 0,-49.596 40.205,-89.802 89.801,-89.802 49.596,0 89.802,40.206 89.802,89.802z"/>
   </g>
   <path class="fil2" d="M469.032 208.094c0,42.016 -34.061,76.077 -76.077,76.077 -42.016,0 -76.077,-34.061 -76.077,-76.077 0,-42.016 34.061,-76.077 76.077,-76.077 42.016,0 76.077,34.061 76.077,76.077z"/>
  </g>
  <g id="_2109257388960">
   <path class="fil1" d="M231.734 189.738c0,28.4 -23.023,51.423 -51.424,51.423 -28.4,0 -51.423,-23.023 -51.423,-51.423 0,-28.401 23.023,-51.424 51.423,-51.424 28.401,0 51.424,23.023 51.424,51.424z"/>
   <path class="fil2" d="M230.969 204.958c0,24.06 -19.505,43.565 -43.565,43.565 -24.06,0 -43.565,-19.505 -43.565,-43.565 0,-24.061 19.505,-43.565 43.565,-43.565 24.06,0 43.565,19.504 43.565,43.565z"/>
  </g>
  <g id="_2109257452640">
   <path class="fil3" d="M158.284 309.214c0,3.087 -31.15,5.59 -69.577,5.59 -38.426,0 -69.577,-2.503 -69.577,-5.59 0,-3.087 31.151,-5.59 69.577,-5.59 38.427,0 69.577,2.503 69.577,5.59z"/>
   <path class="fil3" d="M142.849 309.214c0,1.744 -24.24,3.157 -54.142,3.157 -29.901,0 -54.141,-1.413 -54.141,-3.157 0,-1.744 24.24,-3.157 54.141,-3.157 29.902,0 54.142,1.413 54.142,3.157z"/>
  </g>
  <g id="_2109257445888">
   <path class="fil3" d="M269.198 309.74c0,2.41 -24.319,4.364 -54.317,4.364 -29.998,0 -54.317,-1.954 -54.317,-4.364 0,-2.41 24.319,-4.364 54.317,-4.364 29.998,0 54.317,1.954 54.317,4.364z"/>
   <path class="fil3" d="M257.148 309.74c0,1.362 -18.924,2.465 -42.267,2.465 -23.343,0 -42.267,-1.103 -42.267,-2.465 0,-1.361 18.924,-2.464 42.267,-2.464 23.343,0 42.267,1.103 42.267,2.464z"/>
  </g>
  <path class="fil4" d="M107.426 93.935c0,0 4.961,2.757 6.742,8.609 1.781,5.851 1.781,40.877 1.781,40.877l-14.417 2.869c0,0 -3.138,-20.678 -3.986,-31.788 -0.848,-11.11 3.731,-21.203 9.88,-20.567z"/>
  <path class="fil4" d="M128.669 131.375c0,0 -5.344,11.392 -11.359,17.547 -2.105,2.159 -4.291,3.674 -6.363,3.828 -7.972,0.597 -9.414,-6.457 -9.414,-6.457 0,0 0.845,-4.485 1.019,-4.82 0.168,-0.342 14.275,-19.069 14.275,-19.069 0.932,-0.295 1.79,-0.443 2.588,-0.483 7.497,-0.356 9.254,9.454 9.254,9.454z"/>
  <path class="fil5" d="M117.31 148.922c-2.105,2.159 -4.291,3.674 -6.363,3.828 -7.972,0.597 -9.414,-6.457 -9.414,-6.457 0,0 0.845,-4.485 1.019,-4.82 0.168,-0.342 14.275,-19.069 14.275,-19.069 0.932,-0.295 1.79,-0.443 2.588,-0.483l5.914 5.223c-1.844,4.633 -5.645,13.913 -9.105,18.439 -1.287,1.676 -0.55,2.943 1.086,3.339z"/>
  <path class="fil4" d="M128.671 131.377c-1.293,0.224 -2.448,0.274 -3.476,0.178 -5.526,-0.499 -7.434,-5.027 -8.07,-7.521 -0.245,-0.967 -0.3,-1.628 -0.3,-1.628 0.305,-0.097 0.605,-0.178 0.895,-0.239 4.539,-1.043 7.292,1.353 8.9,3.964 1.562,2.524 2.051,5.246 2.051,5.246z"/>
  <path class="fil6" d="M127.763 121.834c-0.476,1.958 -0.912,3.439 -0.912,3.439l-0.234 0.859 -1.422 5.424c-5.524,-0.503 -7.436,-5.029 -8.073,-7.523l0.597 -1.864 0.268 -0.845c0,0 -3.479,-1.435 -4.284,-3.982 -0.805,-2.542 -3.775,-6.357 -1.696,-6.826 0.382,-0.088 0.75,-0.074 1.106,0 1.589,0.321 2.836,1.904 2.836,1.904 0,0 0.168,-7.201 2.883,-6.947 0.664,0.061 1.516,0.389 2.454,0.892 2.924,1.569 6.618,4.808 7.383,6.739 0.026,0.06 0.046,0.121 0.06,0.187 0.496,1.67 -0.275,5.633 -0.966,8.543z"/>
  <path class="fil7" d="M127.763 121.834c-0.476,1.958 -0.912,3.439 -0.912,3.439l-0.234 0.859 -1.422 5.424c-5.524,-0.503 -7.436,-5.029 -8.073,-7.523l0.597 -1.864 0.268 -0.845c0,0 -3.479,-1.435 -4.284,-3.982 -0.805,-2.542 -3.775,-6.357 -1.696,-6.826 0.382,-0.088 0.75,-0.074 1.106,0 1.167,2.957 1.743,6.128 3.922,8.548 2.126,2.388 7.034,4.406 10.728,2.77z"/>
  <path class="fil6" d="M128.729 113.291c0,0 -0.852,4.419 -1.992,5.163 -0.033,0.021 -0.067,0.041 -0.1,0.054 -1.187,0.536 -5.894,-1.549 -6.96,-4.13 -0.878,-2.159 -0.912,-5.471 0.543,-7.188 0.288,-0.349 0.644,-0.63 1.066,-0.825 2.924,1.569 6.618,4.808 7.383,6.739 0.026,0.06 0.046,0.121 0.06,0.187z"/>
  <path class="fil8" d="M128.729 113.291c0,0 -0.852,4.419 -1.992,5.163 0.456,-2.078 0.946,-4.626 0.731,-5.089 -0.362,-0.757 -5.518,-5.511 -7.248,-6.175 0.288,-0.349 0.644,-0.63 1.066,-0.825 2.924,1.569 6.618,4.808 7.383,6.739 0.026,0.06 0.046,0.121 0.06,0.187z"/>
  <path class="fil6" d="M121.286 106.365c0,0 -0.63,6.062 -0.972,8.133 -0.134,0.859 -0.456,1.294 -0.858,1.435 -0.584,0.195 -1.335,-0.228 -1.978,-0.925 -1.107,-1.187 -0.678,-8.904 0.489,-9.334 0.141,-0.107 0.275,-0.201 0.409,-0.281 1.086,-0.617 2.052,-0.262 2.91,0.972z"/>
  <path class="fil8" d="M121.286 106.365c0,0 -0.63,6.062 -0.972,8.133 -0.134,0.859 -0.456,1.294 -0.858,1.435 0.093,-1.435 0.362,-5.022 0.596,-7.174 0.229,-2.099 -0.388,-3.272 -1.676,-3.366 1.086,-0.617 2.052,-0.262 2.91,0.972z"/>
  <polygon class="fil9" points="125.282,292.986 115.956,293.181 113.958,286.496 108.091,266.863 121.883,264.825 122.956,273.709 "/>
  <path class="fil10" d="M122.956 273.709c-3.789,1.194 -7.63,2.173 -7.63,2.173l-1.368 10.614 -5.867 -19.633 13.792 -2.038 1.073 8.884z"/>
  <path class="fil11" d="M145.458 307.02l-33.069 0c-0.087,-1.368 -0.087,-2.722 -0.041,-4.037 0.262,-7.06 2.052,-12.86 2.052,-12.86 0.423,1.274 1.73,1.958 3.145,2.126 1.428,0.167 2.957,-0.195 3.802,-1.04 1.676,-1.669 3.426,-4.143 6.342,-0.067 0.309,0.429 0.711,0.852 1.201,1.261 0.409,0.328 0.865,0.657 1.367,0.979 0.524,0.328 1.087,0.65 1.69,0.965 0.496,0.255 1.006,0.503 1.536,0.751 0.597,0.275 1.207,0.543 1.817,0.798 0.536,0.235 1.079,0.45 1.616,0.657 3.439,1.361 6.691,2.454 7.663,3.259 0.805,0.65 1.114,1.898 1.187,3.171 0.121,1.985 -0.308,4.037 -0.308,4.037z"/>
  <path class="fil4" d="M145.457 307.018l-33.071 0c-0.081,-1.369 -0.081,-2.721 -0.035,-4.031l33.415 0c0.122,1.98 -0.309,4.031 -0.309,4.031z"/>
  <path class="fil3" d="M140.65 307.02l-28.261 0c-0.087,-1.368 -0.087,-2.722 -0.041,-4.037 0.262,-7.06 2.052,-12.86 2.052,-12.86 0.423,1.274 1.73,1.958 3.145,2.126 -0.201,2.541 -0.362,4.324 0.241,6.209 0.858,2.675 20.873,-0.202 22.864,8.562z"/>
  <path class="fil4" d="M130.256 293.379l-2.546 3.298 -1.364 -0.921 2.546 -3.356c0.408,0.332 0.863,0.658 1.364,0.979z"/>
  <path class="fil4" d="M133.484 295.098l-2.57 3.326 -1.363 -0.92 2.394 -3.158c0.496,0.256 1.008,0.507 1.539,0.752z"/>
  <path class="fil4" d="M136.915 296.554l-2.796 3.618 -1.364 -0.92 2.546 -3.356c0.537,0.233 1.078,0.448 1.614,0.658z"/>
  <path class="fil11" d="M131.042 267.5c-0.643,0.342 -1.307,0.644 -2.005,0.926 -1.052,0.416 -2.165,0.764 -3.312,1.046 -10.467,2.601 -23.769,0.02 -23.769,0.02 -2.039,-13.102 -4.238,-51.522 -4.238,-51.522l-9.333 -28.496 2.205 -27.477 21.544 3.727 1.28 6.914 17.628 94.862z"/>
  <path class="fil8" d="M131.042 267.5c-0.643,0.342 -1.307,0.644 -2.005,0.926l-15.623 -95.788 17.628 94.862z"/>
  <path class="fil12 str0" d="M125.725 269.472c-10.467,2.601 -23.769,0.02 -23.769,0.02 -2.039,-13.102 -4.238,-51.522 -4.238,-51.522l-0.825 -2.514 -7.777 -23.756 -0.731 -2.226 2.205 -27.477 21.544 3.727 0.59 3.179 0.69 3.735 -15.964 1.548c0,0 13.852,21.456 13.182,26.82 -0.67,5.364 -11.62,-6.255 -11.62,-6.255 0,0 12.961,29.502 12.961,31.292 0,1.784 -3.352,17.876 -3.125,25.7 0.121,4.231 8.871,11.734 16.877,17.729z"/>
  <path class="fil12" d="M94.573 172.544c0.161,1.837 10.306,20.698 8.127,19.444 -2.179,-1.26 -7.208,-6.121 -7.208,-3.688 0,2.039 1.066,21.101 1.401,27.156l-7.777 -23.756 1.474 -4.09 0 -25.613 21.544 3.727 0.59 3.179c-8.529,1.261 -18.251,2.541 -18.151,3.641z"/>
  <polygon class="fil9" points="59.975,269.277 53.103,292.262 52.084,292.242 44.963,292.094 47.33,272.489 47.933,267.5 "/>
  <path class="fil3" d="M59.975 269.277l-6.872 22.985 -1.019 -0.02 1.783 -17.815c0,0 -3.339,-0.55 -6.537,-1.938l0.603 -4.989 12.042 1.777z"/>
  <path class="fil11" d="M55.563 291.625l-0.133 6.578 -0.095 4.492c0,0 -7.382,9.984 -11.901,12.974 -1.462,0.966 -3.534,1.442 -5.686,1.502 -4.526,0.128 -9.427,-1.602 -9.769,-4.62 -0.047,-0.388 -0.014,-0.784 0.08,-1.2 1.026,-4.264 9.32,-9.829 15.549,-21.805 0,0 2.541,-2.333 6.571,-2.031 0.818,0.06 1.529,0.268 2.139,0.563 2.387,1.126 3.245,3.547 3.245,3.547z"/>
  <path class="fil4" d="M49.067 296.746c-3.403,-2.481 -7.379,-1.304 -7.379,-1.304l0.827 -1.463c0,0 3.975,-1.177 7.378,1.304l-0.826 1.463z"/>
  <path class="fil4" d="M46.921 300.264c-3.179,-2.762 -7.24,-1.93 -7.24,-1.93l0.949 -1.387c0,0 4.061,-0.832 7.24,1.93l-0.949 1.387z"/>
  <path class="fil4" d="M44.439 303.564c-3.128,-2.819 -7.204,-2.059 -7.204,-2.059l0.973 -1.37c0,0 4.076,-0.76 7.205,2.059l-0.974 1.37z"/>
  <path class="fil4" d="M55.426 298.205l-0.092 4.488c0,0 -7.378,9.984 -11.897,12.976 -4.518,2.992 -14.95,1.333 -15.458,-3.114 -0.046,-0.392 -0.016,-0.789 0.081,-1.201 1.786,1.089 6.442,3.465 11.943,2.473 6.065,-1.094 10.721,-8.671 15.423,-15.622z"/>
  <path class="fil3" d="M55.563 291.625l-0.133 6.578 -0.095 4.492c0,0 -7.382,9.984 -11.901,12.974 -1.462,0.966 -3.534,1.442 -5.686,1.502 0.027,-1.998 0.302,-4.304 1.334,-5.337 2.012,-2.011 10.232,-8.797 11.238,-12.485 0.718,-2.635 1.435,-7.918 1.998,-11.271 2.387,1.126 3.245,3.547 3.245,3.547z"/>
  <path class="fil11" d="M90.59 161.997l0 25.613 -10.345 28.664 -7.805 53.091c-5.813,2.46 -11.714,2.634 -16.675,1.957 -5.002,-0.67 -9.059,-2.199 -11.144,-3.104 -0.979,-0.429 -1.522,-0.718 -1.522,-0.718l11.7 -55.98 5.693 -34.008 0.925 -5.538 1.529 -9.133 27.644 -0.844z"/>
  <path class="fil8" d="M60.492 177.512c-1.449,12.404 -4.499,38.701 -4.841,42.269 -0.362,3.828 -8.167,36.535 -11.03,48.437 -0.979,-0.429 -1.522,-0.718 -1.522,-0.718l11.7 -55.98 5.693 -34.008z"/>
  <path class="fil12" d="M90.59 161.997l0 25.613 -1.474 4.09 -4.52 12.512 -4.351 12.062 -7.805 53.091c-5.813,2.46 -11.714,2.634 -16.675,1.957 8.22,-15.736 14.864,-37.233 14.864,-37.233 0,0 -6.932,4.023 -5.364,-2.682 1.563,-6.705 16.093,-43.475 15.194,-43.475 -0.892,0 -14.637,4.137 -14.523,2.239 0.108,-1.904 20.001,-16.32 19.331,-16.427 -0.443,-0.074 -14.53,-0.838 -23.85,-1.77l0.724 -4.338 0.805 -4.795 27.644 -0.844z"/>
  <path class="fil3" d="M90.59 161.997l0 25.613 -1.474 4.09 -4.52 12.512c1.623,-8.442 3.46,-18.211 3.272,-18.258 -0.335,-0.087 -5.538,0.415 -5.116,-1.428 0.423,-1.844 7.128,-12.405 6.203,-13.075 -0.818,-0.597 -19.894,-2.367 -26.814,-3.815l0.805 -4.795 27.644 -0.844z"/>
  <path class="fil1" d="M107.152 90.783c-0.355,0.429 -0.805,0.831 -1.348,1.18 -1.462,0.959 -3.6,1.589 -6.457,1.589 -8.267,0 -7.63,-13.035 -5.726,-20.223 1.133,-4.257 3.936,-3.989 6.035,-3.057 0.281,0.121 0.55,0.262 0.798,0.395 1.032,0.577 1.757,1.194 1.757,1.194 -0.637,6.048 1.971,9.924 4.834,13.169 1.508,1.71 1.582,3.983 0.107,5.753z"/>
  <path class="fil3" d="M105.804 91.963c-1.462,0.959 -3.6,1.589 -6.457,1.589 -8.267,0 -7.63,-13.035 -5.726,-20.223 1.133,-4.257 3.936,-3.989 6.035,-3.057 0.281,0.121 0.55,0.262 0.798,0.395 -2.749,8.348 5.726,19.05 1.575,15.463 -4.029,-3.487 -5.263,3.265 3.775,5.833z"/>
  <path class="fil8" d="M107.152 90.783c0.751,-2.213 -0.684,-4.432 -3.279,-7.751 -2.293,-2.93 -4.076,-6.605 -4.217,-12.76 1.441,0.637 2.555,1.589 2.555,1.589 -0.637,6.048 1.971,9.924 4.834,13.169 1.508,1.71 1.582,3.983 0.107,5.753z"/>
  <path class="fil4" d="M115.352 167.086c-36.636,5.257 -57.16,-1.019 -57.16,-1.019 0,0 0.57,-2.683 1.388,-6.618 2.159,-10.326 6.075,-29.274 6.075,-30.87 0,-2.206 -1.355,-35.282 -1.355,-35.282 0,0 0.148,-0.067 0.423,-0.181 0.898,-0.389 3.151,-1.334 6.074,-2.427 4.392,-1.643 10.313,-3.601 15.449,-4.452 1.287,-0.215 2.883,-0.047 4.619,0.355 0.778,0.181 1.576,0.409 2.394,0.677 6.665,2.159 14.168,6.665 14.168,6.665 0,0 4.915,12.029 5.216,18.191 0.074,1.482 -0.201,2.983 -0.657,4.479 -0.67,2.152 -1.73,4.284 -2.722,6.276 -0.007,0.013 -0.013,0.027 -0.02,0.04 -1.348,2.736 -2.568,5.21 -2.454,7.141 0.107,1.864 1.716,9.004 3.507,16.521 2.367,9.923 5.055,20.504 5.055,20.504z"/>
  <path class="fil5" d="M107.4 133.768c0.65,3.219 1.737,7.939 2.897,12.814l-8.268 -1.67 -10.171 3.125c0,0 -3.239,9.051 -4.915,9.836 -1.998,0.543 -20.464,1.307 -27.363,1.576 1.381,-6.618 3.493,-16.783 4.821,-23.642 0.751,-3.849 1.254,-6.658 1.254,-7.228 0,-2.206 -1.355,-35.282 -1.355,-35.282 0,0 0.148,-0.067 0.423,-0.181 1.897,4.72 10.198,24.118 19.538,27.209 8.053,2.662 20.839,1.2 27.725,-3.721 -1.589,5.123 -5.391,10.111 -5.196,13.457 0.04,0.657 0.261,1.964 0.61,3.707z"/>
  <path class="fil8" d="M112.643 112.125c0.074,1.482 -0.201,2.983 -0.657,4.479 -0.67,2.152 -1.73,4.284 -2.722,6.276 0.831,-2.199 2.528,-7.094 2.407,-10.266 -0.174,-4.19 -4.948,-17.097 -5.505,-17.822 -0.563,-0.731 -15.254,-7.992 -15.254,-7.992l-0.047 -0.208c7.115,1.67 16.562,7.342 16.562,7.342 0,0 4.915,12.029 5.216,18.191z"/>
  <path class="fil5" d="M110.297 146.582l-8.268 -1.67 -10.171 3.125c0,0 -3.239,9.051 -4.915,9.836 -1.998,0.543 -20.464,1.307 -27.363,1.576 1.381,-6.618 3.493,-16.783 4.821,-23.642 12.478,0.637 32.117,-0.979 42.999,-2.039 0.65,3.219 1.737,7.939 2.897,12.814z"/>
  <path class="fil13" d="M87.326 82.613c-4.489,-0.057 -6.043,3.117 -5.979,6.806 0.064,3.689 1.972,7.951 1.972,7.951 0,0 4.58,-1.908 5.216,-1.844 0.636,0.063 6.212,3.371 6.212,3.371 0,0 3.074,-2.99 3.265,-2.99 0.191,0 5.725,1.781 5.725,1.781 0,0 -6.488,-14.948 -16.411,-15.075z"/>
  <path class="fil5" d="M93.259 87.269c-0.744,3.996 -2.863,9.153 -8.83,9.756 -7.148,0.724 -13.511,-2.622 -13.632,-6.336 4.392,-1.643 10.313,-3.601 15.449,-4.452 1.287,-0.215 2.883,-0.047 4.619,0.355 0.778,0.181 1.576,0.409 2.394,0.677z"/>
  <path class="fil1" d="M90.188 44.002c0,2.46 -1.991,4.452 -4.452,4.452 -2.461,0 -4.452,-1.992 -4.452,-4.452 0,-1.341 0.59,-2.542 1.529,-3.353 0.778,-0.684 1.803,-1.099 2.923,-1.099 2.119,0 3.889,1.481 4.338,3.459 0.074,0.322 0.114,0.651 0.114,0.993z"/>
  <path class="fil3" d="M90.188 44.002c0,2.46 -1.991,4.452 -4.452,4.452 -2.461,0 -4.452,-1.992 -4.452,-4.452 0,-1.341 0.59,-2.542 1.529,-3.353 -0.429,4.613 4.874,5.089 7.261,2.36 0.074,0.322 0.114,0.651 0.114,0.993z"/>
  <path class="fil7" d="M94.533 86.894c-0.127,1.059 1.234,7.972 0.215,12.002l-10.306 -13.739 2.897 -12.532 0.663 -2.863 9.159 4.452c0,0 -1.092,5.09 -1.87,8.838 -0.396,1.917 -0.711,3.486 -0.758,3.842z"/>
  <path class="fil7" d="M97.161 74.214c0,0 -1.092,5.09 -1.87,8.838 -3.976,-2.159 -7.034,-5.405 -7.952,-10.427l0.663 -2.863 9.159 4.452z"/>
  <path class="fil6" d="M104.162 71.251c-0.195,2.045 -0.966,3.493 -2.072,4.459 -1.355,1.173 -3.205,1.623 -5.116,1.549 -3.272,-0.108 -6.725,-1.75 -8.167,-3.889 -2.964,-4.412 -3.48,-21.926 5.176,-24.004 0.691,-0.168 1.335,-0.289 1.945,-0.376 2.823,-0.409 4.821,-0.04 6.202,0.657 2.005,0.999 2.709,2.689 2.709,3.708 0,1.864 0.167,9.072 -0.677,17.896z"/>
  <path class="fil6" d="M96.974 77.259c-3.272,-0.108 -6.725,-1.75 -8.167,-3.889 -2.964,-4.412 -3.48,-21.926 5.176,-24.004 0.691,-0.168 1.335,-0.289 1.945,-0.376 -4.593,9.045 -5.438,17.909 -4.124,23.227 0.416,1.676 2.441,3.406 5.17,5.042z"/>
  <path class="fil8" d="M102.09 75.71c1.991,-7.791 1.019,-18.969 0.04,-26.063 2.005,0.999 2.709,2.689 2.709,3.708 0,1.864 0.167,9.072 -0.677,17.896 -0.195,2.045 -0.966,3.493 -2.072,4.459z"/>
  <path class="fil1" d="M105.201 57.003l-2.903 0c0.456,-2.535 -0.141,-4.298 -0.51,-5.089 -0.148,-0.309 -0.255,-0.47 -0.255,-0.47 0,0 0.007,0.181 -0.006,0.483 -0.041,1.341 -0.41,5.062 -3.219,5.203 -3.433,0.168 -7.168,-0.509 -7.885,0.677 -0.724,1.187 -1.616,6.491 -1.616,6.491 -3.285,8.14 1.321,14.945 3.989,21.054 0.53,1.206 0.698,2.3 0.557,3.258 -0.59,3.889 -6.276,5.686 -13.725,4.815 -9.287,-1.08 -9.159,-6.933 -6.296,-12.21 0.328,-0.604 0.65,-1.194 0.965,-1.784 2.448,-4.613 4.453,-9.192 4.566,-17.366 0.061,-4.237 0.859,-8.468 2.957,-11.673 0.751,-1.16 1.676,-2.179 2.796,-3.011 2.522,-1.897 6.042,-2.863 10.849,-2.34 7.543,0.825 10.332,4.801 11.358,7.945 0.141,0.436 0.249,0.859 0.329,1.254 0,0 -0.007,0.007 0,0.007 0.027,0.134 0.053,0.262 0.074,0.382 0.214,1.241 -0.765,2.374 -2.025,2.374z"/>
  <path class="fil3" d="M101.527 51.927c-0.041,1.341 -0.41,5.062 -3.219,5.203 -3.433,0.168 -7.168,-0.509 -7.885,0.677 -0.724,1.187 -1.616,6.491 -1.616,6.491 -3.285,8.14 1.321,14.945 3.989,21.054 0.53,1.206 0.698,2.3 0.557,3.258 -2.125,-2.353 -4.258,-5.545 -5.626,-7.563 -2.909,-4.305 -4.19,6.423 -4.19,6.423 0,0 -0.731,-7.375 -2.179,-8.099 -1.455,-0.731 -5.646,7.147 -5.646,7.147 0,0 0.449,-3.352 0.557,-6.202 0.046,-1.146 -0.865,-1.214 -1.972,-0.885 2.448,-4.613 4.453,-9.192 4.566,-17.366 0.061,-4.237 0.859,-8.468 2.957,-11.673 -1.998,7.08 -0.409,9.977 -0.409,9.977 0,0 0.557,-4.969 2.012,-7.376l3.634 0.114c0,0 -0.168,2.293 -0.06,5.143l2.125 -5.76c0,0 6.484,0.564 10.896,-0.335 0.583,-0.121 1.079,-0.188 1.509,-0.228z"/>
  <path class="fil3" d="M105.201 57.003l-2.903 0c0.456,-2.535 -0.141,-4.298 -0.51,-5.089 1.897,-0.107 2.615,0.536 5.035,1.072 0.188,0.584 0.316,1.14 0.403,1.643 0.214,1.241 -0.765,2.374 -2.025,2.374z"/>
  <path class="fil8" d="M107.152 54.24c-0.06,-0.12 -0.121,-0.248 -0.174,-0.375 -3.95,-9.025 -16.354,-7.718 -22.362,-6.484 2.522,-1.897 6.042,-2.863 10.849,-2.34 7.543,0.825 10.332,4.801 11.358,7.945 0.141,0.436 0.249,0.859 0.329,1.254z"/>
  <path class="fil6" d="M88.997 63.877c0,0 -0.483,-3.441 -3.791,-3.017 -3.308,0.424 -2.94,8.557 2.785,7.878l1.006 -4.861z"/>
  <polygon class="fil14" points="127.636,118.24 126.496,119.635 117.049,131.214 107.957,129.296 115.004,120.439 118.591,115.927 "/>
  <path class="fil3" d="M126.496 119.635l-9.447 11.579 -9.092 -1.918 7.047 -8.857c-0.376,1.924 -2.636,4.781 1.522,4.412 4.666,-0.416 6.517,-3.111 9.97,-5.216z"/>
  <polygon class="fil15" points="118.137,114.534 118.589,115.927 127.634,118.24 127.182,116.847 "/>
  <polygon class="fil16" points="107.505,127.903 107.956,129.296 118.589,115.927 118.137,114.534 "/>
  <path class="fil6" d="M121.166 127.801l-0.523 0.959 -0.222 0.402c-0.395,0.53 -1.281,0.811 -1.87,1.1l-0.624 0.308 -4.687 6.725c-1.099,1.576 -3.004,2.387 -4.901,2.079l-5.753 -0.925c0,0 -16.615,5.431 -16.588,5.203 0.026,-0.228 3.225,-12.794 3.225,-12.794l4.807 -0.261 5.994 -0.322 6.545 -5.089c0.389,-0.308 0.851,-0.503 1.341,-0.576l2.48 -0.342 -2.306 4.566 11.975 -2.414c0.791,-0.161 1.442,0.644 1.107,1.381z"/>
  <path class="fil7" d="M120.643 128.76l-0.222 0.402c-0.395,0.53 -1.281,0.811 -1.87,1.1l-0.624 0.308 -4.687 6.725c-1.099,1.576 -3.004,2.387 -4.901,2.079l-5.753 -0.925c0,0 -16.615,5.431 -16.588,5.203 0.026,-0.228 3.225,-12.794 3.225,-12.794l4.807 -0.261 -1.501 5.538 10.225 -1.951c0,0 5.813,1.562 6.933,1.562 1.113,0 5.974,-6.148 5.974,-6.148l4.982 -0.838z"/>
  <path class="fil4" d="M92.247 128.914l-0.644 2.407 -2.018 7.55 -3.42 12.793c0,0 -2.266,0.168 -5.625,0.362 -6.752,0.403 -17.929,0.932 -24.018,0.456 -9.118,-0.717 -14.724,-1.938 -15.716,-8.26 -0.188,-1.194 0.188,-3.702 0.992,-7 0.617,-2.555 1.488,-5.579 2.541,-8.831 4.815,-14.825 13.491,-34.336 19.74,-35.168 1.133,-0.147 2.058,0.054 2.796,0.543 0.013,0.007 0.027,0.021 0.04,0.034 7.014,4.814 -2.709,35.999 -2.709,35.999l22.703 -0.717 5.338 -0.168z"/>
  <path class="fil8" d="M66.915 93.8c-9.265,-0.63 -18.056,23.515 -22.576,34.591 4.815,-14.825 13.491,-34.336 19.74,-35.168 1.133,-0.147 2.058,0.054 2.796,0.543 0.013,0.007 0.027,0.021 0.04,0.034z"/>
  <path class="fil13" d="M92.249 128.913l-6.086 22.749c0,0 -2.264,0.17 -5.621,0.365l6.367 -22.947 5.34 -0.167z"/>
  <path class="fil5" d="M89.585 138.871l-3.42 12.793c0,0 -2.266,0.168 -5.625,0.362 -6.752,0.403 -17.929,0.932 -24.018,0.456 -9.118,-0.717 -14.724,-1.938 -15.716,-8.26 -0.188,-1.194 0.188,-3.702 0.992,-7 4.975,2.923 16.206,-3.675 17.152,-3.232 1.253,0.583 -5.029,6.866 -5.613,9.212 -0.59,2.347 10.977,-5.612 13.156,-4.941 1.535,0.476 13.906,0.697 23.092,0.61z"/>
  <path class="fil8" d="M92.247 128.914l-0.644 2.407 -31.225 0.148c0,0 8.629,-20.028 8.046,-31.179 -0.141,-2.661 -0.731,-4.8 -1.549,-6.524 7.094,4.727 -2.669,36.033 -2.669,36.033l22.703 -0.717 5.338 -0.168z"/>
  <path class="fil17" d="M221.286 213.185c0,0 -35.517,25.05 -45.568,28.141 -0.248,0.074 -0.476,0.141 -0.69,0.188 -2.018,0.456 -4.539,0.08 -6.578,-1.274 -1.113,-0.027 -2.085,-0.181 -2.937,-0.456 -2.997,-0.946 -4.499,-3.239 -5.625,-5.907 -1.864,-4.412 -16.964,-42.235 -20.182,-52.407 -1.609,-5.082 -2.246,-8.26 -2.079,-10.426 0.168,-2.166 1.147,-3.313 2.756,-4.332 3.225,-2.038 17.473,-10.346 35.791,-19.505 18.318,-9.159 24.977,-6.323 24.977,-6.323 0,0 0,0.007 0,0.014l0.006 0 4.62 16.588 15.509 55.699z"/>
  <path class="fil3" d="M187.605 148.54c-0.301,0.181 -0.61,0.368 -0.925,0.549 -1.079,0.644 -2.226,1.314 -3.426,2.012 -0.389,0.228 -0.785,0.456 -1.187,0.691 -1.308,0.751 -2.662,1.535 -4.056,2.333 -0.483,0.275 -0.973,0.557 -1.462,0.838 -1.073,0.61 -2.153,1.227 -3.245,1.844 -2.716,1.542 -5.465,3.098 -8.1,4.593 -0.121,0.074 -0.248,0.141 -0.376,0.208l0 0.007c-0.006,0 -0.006,0 -0.006,0 -1.589,0.898 -3.132,1.776 -4.613,2.614 -0.315,0.188 -0.631,0.362 -0.939,0.537 -0.174,0.1 -0.349,0.201 -0.523,0.301 -0.55,0.316 -1.093,0.624 -1.616,0.926 -5.23,2.99 -9.058,5.243 -9.735,5.867 -2.542,2.353 -1.925,6.303 -0.061,12.659 1.871,6.363 19.337,52.326 20.611,54.364 0.315,0.503 0.47,0.959 0.503,1.355 -1.113,-0.02 -2.085,-0.181 -2.937,-0.456 -4.043,-8.113 -16.869,-41.189 -20.081,-50.617 -3.694,-10.815 -5.471,-16.454 -4.452,-17.808 0.369,-0.496 5.807,-3.694 12.88,-7.684 0.268,-0.148 0.537,-0.302 0.811,-0.456 0.584,-0.329 1.174,-0.657 1.77,-0.992 0.282,-0.161 0.57,-0.322 0.858,-0.483 1.308,-0.724 2.649,-1.469 4.004,-2.219 0.214,-0.121 0.436,-0.242 0.657,-0.363 1.482,-0.824 2.977,-1.642 4.465,-2.454 0.966,-0.529 1.931,-1.052 2.877,-1.569 1.971,-1.072 3.902,-2.105 5.719,-3.07 0.362,-0.195 0.724,-0.389 1.073,-0.577 0.764,-0.403 1.502,-0.791 2.212,-1.16 0.343,-0.181 0.671,-0.355 1,-0.523 1.227,-0.637 2.36,-1.227 3.386,-1.744 0.315,-0.154 0.61,-0.308 0.898,-0.449 1.287,-0.643 2.367,-1.153 3.165,-1.502 0.228,-0.107 0.436,-0.194 0.617,-0.268 0.08,-0.033 0.167,-0.067 0.248,-0.1 6.484,-2.609 7.999,-2.696 7.999,-2.696 0.369,0.315 -2.957,2.481 -8.013,5.492z"/>
  <path class="fil18" d="M183.603 147.024c0,0.195 0,0.396 -0.014,0.59 -0.02,1.187 -0.141,2.354 -0.335,3.487 -0.389,0.228 -0.785,0.456 -1.187,0.691 -1.308,0.751 -2.662,1.535 -4.056,2.333 -0.483,0.275 -0.973,0.557 -1.462,0.838 -1.073,0.61 -2.153,1.227 -3.245,1.844 -2.716,1.542 -5.465,3.098 -8.1,4.593 -0.121,0.074 -0.248,0.141 -0.376,0.208l0 0.007c-0.006,0 -0.006,0 -0.006,0 -1.589,0.898 -3.132,1.776 -4.613,2.614 -0.315,0.188 -0.631,0.362 -0.939,0.537 -0.174,0.1 -0.349,0.201 -0.523,0.301 -0.55,0.316 -1.093,0.624 -1.616,0.926 -1.167,-0.644 -2.26,-1.422 -3.272,-2.32 -4.351,-3.849 -7.154,-9.877 -7.154,-16.649 0,-11.626 8.26,-21.053 18.452,-21.053l4.057 0 0 0.516c3.895,0.999 7.322,3.406 9.856,6.725 2.823,3.694 4.533,8.522 4.533,13.812z"/>
  <g id="_2109318150192">
   <path class="fil5" d="M173.304 155.137l0 1.67c-2.716,1.542 -5.465,3.098 -8.1,4.593 -0.121,0.074 -0.248,0.141 -0.376,0.208l0 0.007c-0.006,0 -0.006,0 -0.006,0 -1.589,0.898 -3.132,1.776 -4.613,2.614 -0.315,0.188 -0.631,0.362 -0.939,0.537 -0.174,0.1 -0.349,0.201 -0.523,0.301l-1.415 0c-0.938,-0.529 -1.83,-1.153 -2.662,-1.85 -2.447,-2.079 -4.411,-4.854 -5.658,-8.08l24.292 0z"/>
   <path class="fil5" d="M169.42 147.873l-21.884 0c0.077,2.115 0.436,4.146 1.042,6.043l20.842 0 0 -6.043z"/>
   <path class="fil5" d="M168.436 143.347l-20.62 0c-0.178,1.104 -0.279,2.238 -0.293,3.397l20.913 0 0 -3.397z"/>
   <path class="fil5" d="M168.436 140.273l-19.898 0c-0.174,0.556 -0.329,1.122 -0.459,1.699l20.357 0 0 -1.699z"/>
  </g>
  <path class="fil19" d="M187.659 147.024c0,0.51 -0.013,1.019 -0.054,1.516 -0.301,0.181 -0.61,0.368 -0.925,0.549 -1.079,0.644 -2.226,1.314 -3.426,2.012 -0.389,0.228 -0.785,0.456 -1.187,0.691 -1.308,0.751 -2.662,1.535 -4.056,2.333 -0.483,0.275 -0.973,0.557 -1.462,0.838 -1.073,0.61 -2.153,1.227 -3.245,1.844 -2.716,1.542 -5.465,3.098 -8.1,4.593 -0.121,0.074 -0.248,0.141 -0.376,0.208l0 0.007c-0.006,0 -0.006,0 -0.006,0 -1.589,0.898 -3.132,1.776 -4.613,2.614 -0.315,0.188 -0.631,0.362 -0.939,0.537 -1.019,-0.745 -1.965,-1.596 -2.83,-2.541 -1.81,-1.992 -3.271,-4.399 -4.25,-7.088 -0.148,-0.402 -0.289,-0.804 -0.403,-1.22 -0.583,-1.904 -0.931,-3.929 -0.999,-6.041 -0.013,-0.282 -0.02,-0.563 -0.02,-0.852 0,-0.094 0,-0.187 0.007,-0.281 0.007,-1.16 0.1,-2.293 0.282,-3.393 0.066,-0.469 0.147,-0.925 0.254,-1.381 0.114,-0.577 0.262,-1.14 0.436,-1.697 2.454,-8.314 9.347,-14.301 17.467,-14.301 9.816,0 17.835,8.743 18.405,19.773 0.027,0.422 0.04,0.851 0.04,1.28z"/>
  <path class="fil5" d="M186.774 147.024c0,0.698 -0.033,1.388 -0.094,2.065 -1.079,0.644 -2.226,1.314 -3.426,2.012 -0.389,0.228 -0.785,0.456 -1.187,0.691 -1.308,0.751 -2.662,1.535 -4.056,2.333 -0.483,0.275 -0.973,0.557 -1.462,0.838 -1.073,0.61 -2.153,1.227 -3.245,1.844 -2.716,1.542 -5.465,3.098 -8.1,4.593 -0.121,0.074 -0.248,0.141 -0.376,0.208l0 0.007c-0.006,0 -0.006,0 -0.006,0 -1.589,0.898 -3.132,1.776 -4.613,2.614 -1.046,-0.71 -2.025,-1.548 -2.911,-2.487 -1.381,-1.455 -2.561,-3.165 -3.472,-5.056 2.105,1.328 4.465,2.173 6.979,2.407 0.376,0.041 0.765,0.061 1.154,0.067 0.107,0.007 0.214,0.007 0.328,0.007 1.965,0 3.862,-0.369 5.626,-1.059 0.677,-0.255 1.334,-0.563 1.971,-0.912 0.087,-0.047 0.174,-0.101 0.262,-0.154 0.952,-0.537 1.85,-1.18 2.695,-1.905 0.704,-0.603 1.361,-1.267 1.978,-1.984 0,0 -0.007,-0.007 0,-0.007 0.456,-0.523 0.885,-1.073 1.274,-1.656 1.053,-1.515 1.911,-3.205 2.541,-5.029 0.262,-0.751 0.483,-1.522 0.657,-2.313 0.369,-1.603 0.564,-3.286 0.564,-5.022 0,-0.57 -0.021,-1.133 -0.061,-1.69 -0.107,-1.462 -0.355,-2.876 -0.724,-4.224 -0.349,-1.314 -0.818,-2.568 -1.395,-3.748 5.203,3.279 8.797,9.481 9.079,16.648 0.013,0.302 0.02,0.604 0.02,0.912z"/>
  <path class="fil18" d="M182.724 147.024c0,0.349 -0.013,0.698 -0.033,1.039 -0.074,1.295 -0.289,2.542 -0.624,3.729 -1.308,0.751 -2.662,1.535 -4.056,2.333 -0.483,0.275 -0.973,0.557 -1.462,0.838 -1.073,0.61 -2.153,1.227 -3.245,1.844 -2.716,1.542 -5.465,3.098 -8.1,4.593 -0.121,0.074 -0.248,0.141 -0.376,0.208 -0.053,-0.014 -0.107,-0.034 -0.161,-0.061 -0.033,-0.006 -0.06,-0.02 -0.093,-0.04 -0.188,-0.074 -0.369,-0.154 -0.55,-0.241 -0.007,0 -0.02,-0.007 -0.034,-0.02 -0.006,0 -0.006,0 -0.013,0 -0.758,-0.363 -1.475,-0.798 -2.152,-1.308 -0.148,-0.114 -0.296,-0.228 -0.443,-0.348 -0.027,-0.021 -0.054,-0.041 -0.08,-0.067 -0.101,-0.081 -0.195,-0.161 -0.289,-0.242 -0.073,-0.06 -0.141,-0.121 -0.208,-0.188 -0.154,-0.134 -0.301,-0.275 -0.449,-0.422 -0.255,-0.248 -0.496,-0.516 -0.737,-0.785 -0.403,-0.469 -0.778,-0.958 -1.127,-1.481 -0.08,-0.114 -0.154,-0.228 -0.228,-0.349 -0.121,-0.188 -0.234,-0.376 -0.348,-0.57 -0.068,-0.114 -0.135,-0.228 -0.195,-0.349 -0.013,-0.033 -0.027,-0.06 -0.047,-0.093 -0.154,-0.296 -0.302,-0.591 -0.442,-0.892 -0.041,-0.081 -0.074,-0.154 -0.114,-0.235 -0.027,-0.074 -0.061,-0.154 -0.087,-0.228 -0.343,-0.798 -0.618,-1.636 -0.832,-2.501 -0.047,-0.194 -0.087,-0.382 -0.127,-0.577 -0.034,-0.14 -0.061,-0.288 -0.081,-0.435 -0.033,-0.155 -0.06,-0.302 -0.08,-0.463 -0.041,-0.221 -0.067,-0.443 -0.087,-0.664 -0.027,-0.174 -0.041,-0.355 -0.061,-0.536 -0.013,-0.208 -0.027,-0.423 -0.04,-0.637 -0.013,-0.282 -0.02,-0.563 -0.02,-0.852 0,-0.094 0,-0.187 0.007,-0.281 0.013,-1.167 0.147,-2.3 0.382,-3.393 0.094,-0.469 0.214,-0.925 0.355,-1.381 0.174,-0.584 0.382,-1.153 0.617,-1.697 1.971,-4.613 5.9,-7.932 10.554,-8.555 0.523,-0.074 1.053,-0.108 1.596,-0.108 4.284,0 8.106,2.273 10.58,5.827 1.837,2.628 2.93,5.961 2.93,9.588z"/>
  <path class="fil20" d="M179.526 147.024c0,0.952 -0.074,1.878 -0.221,2.783 -0.242,1.529 -0.684,2.984 -1.294,4.318 -0.483,0.275 -0.973,0.557 -1.462,0.838 -1.073,0.61 -2.153,1.227 -3.245,1.844 -2.716,1.542 -5.465,3.098 -8.1,4.593 -0.121,0.074 -0.248,0.141 -0.376,0.208l0 0.007c-0.006,0 -0.006,0 -0.006,0 -0.054,-0.021 -0.108,-0.041 -0.155,-0.068 -0.033,-0.006 -0.06,-0.02 -0.093,-0.04 -0.188,-0.074 -0.369,-0.154 -0.55,-0.241 -0.014,-0.007 -0.034,-0.013 -0.047,-0.02 -0.758,-0.363 -1.475,-0.798 -2.152,-1.308 -0.148,-0.114 -0.296,-0.228 -0.443,-0.348 -0.027,-0.021 -0.054,-0.041 -0.08,-0.067 -0.101,-0.081 -0.195,-0.161 -0.289,-0.242 -0.073,-0.06 -0.141,-0.121 -0.208,-0.188 -0.154,-0.134 -0.301,-0.275 -0.449,-0.422 -0.255,-0.248 -0.496,-0.516 -0.737,-0.785 -0.403,-0.469 -0.778,-0.958 -1.127,-1.481 -0.08,-0.114 -0.154,-0.228 -0.228,-0.349 -0.121,-0.188 -0.234,-0.376 -0.348,-0.57 -0.061,-0.114 -0.128,-0.228 -0.188,-0.349l-0.007 0c-0.013,-0.033 -0.027,-0.06 -0.047,-0.093 -0.154,-0.296 -0.302,-0.591 -0.442,-0.892 -0.034,-0.081 -0.074,-0.154 -0.101,-0.235 -0.04,-0.074 -0.074,-0.154 -0.1,-0.228 -0.343,-0.798 -0.618,-1.636 -0.832,-2.501 -0.047,-0.194 -0.087,-0.382 -0.127,-0.577 -0.034,-0.14 -0.061,-0.288 -0.081,-0.435 -0.033,-0.155 -0.06,-0.302 -0.08,-0.463 -0.041,-0.221 -0.067,-0.443 -0.087,-0.664 -0.027,-0.174 -0.041,-0.355 -0.061,-0.536 -0.013,-0.208 -0.027,-0.423 -0.04,-0.637 -0.013,-0.282 -0.02,-0.563 -0.02,-0.852 0,-0.094 0,-0.187 0.007,-0.281 0.013,-1.167 0.147,-2.3 0.382,-3.393 0.094,-0.469 0.214,-0.925 0.355,-1.381 0.174,-0.584 0.382,-1.153 0.617,-1.697 1.971,-4.613 5.9,-7.932 10.554,-8.555 5.873,0.784 10.587,5.873 11.673,12.431 0.154,0.932 0.235,1.891 0.235,2.876z"/>
  <path class="fil16" d="M225.952 215.813c-0.214,0.376 -0.616,0.825 -1.186,1.341 -4.479,4.057 -19.056,12.056 -29.214,16.34 -8.066,3.4 -15.18,7.376 -19.834,7.832 -1.964,0.188 -3.486,-0.241 -4.465,-1.596 -3.306,-4.579 -15.65,-37.783 -19.21,-48.591 -3.56,-10.816 -4.579,-14.248 -1.274,-18.07 0,0 36.006,-19.21 43.254,-23.662 3.634,-2.233 5.418,-4.366 6.283,-5.941 0.818,-1.462 0.845,-2.441 0.845,-2.568 0,-0.007 0,-0.014 0,-0.014 0,0 0,0.007 0.006,0.014 0.396,1.066 26.693,71.637 24.795,74.915z"/>
  <path class="fil8" d="M151.807 161.547c-7.677,4.499 -12.39,8.073 -14.18,9.495 0.167,-2.166 1.146,-3.313 2.755,-4.332 1.469,-0.932 5.23,-3.165 10.628,-6.182 0.248,0.349 0.516,0.691 0.797,1.019z"/>
  <path class="fil8" d="M225.952 215.811c-0.215,0.376 -0.617,0.825 -1.187,1.341 -2.595,-13.008 -12.445,-41.879 -18.989,-59.668 -2.501,-6.785 -4.519,-11.955 -5.471,-14.02 -0.215,-0.476 -0.376,-0.785 -0.476,-0.912 -1.107,-1.455 -4.694,-0.932 -12.304,1.998 -0.067,-0.684 -0.168,-1.354 -0.295,-2.012 10.024,-3.312 13.92,-1.656 13.92,-1.656 0,0 0,0.007 0.006,0.014 0.396,1.066 26.693,71.636 24.796,74.915z"/>
  <g id="_2109318214448">
   <path class="fil3" d="M224.042 215.049c-2.166,2.722 -17.065,11.439 -29.275,16.595 -2.407,1.019 -4.7,2.065 -6.912,3.084 -5.184,2.381 -10.085,4.627 -12.981,4.627 -1.241,0 -1.703,-0.403 -1.992,-0.805 -3.111,-4.304 -15.307,-37.045 -18.928,-48.041 -3.534,-10.735 -4.077,-13.142 -1.891,-15.845 0.999,-0.536 3.849,-2.058 7.65,-4.103 5.204,3.44 13.619,3.889 21.51,5.686 14.751,3.352 0.671,7.711 2.515,18.103 1.656,9.334 10.748,17.997 39.794,17.836 0.322,1.314 0.496,2.293 0.51,2.863z"/>
   <path class="fil3" d="M198.6 191.389c-7.214,-0.676 -10.392,7.487 4.247,11.399 14.639,3.911 10.058,-10.058 -4.247,-11.399z"/>
  </g>
  <g id="_2109318213072">
   <path class="fil17" d="M174.815 188.082l0.318 -2.162c0,0 -1.59,-0.955 -2.672,-0.7 -1.081,0.255 -18.763,8.142 -19.463,8.269 -0.7,0.127 -10.686,-3.817 -10.686,-3.817l-1.527 1.018c0,0 8.396,6.997 12.085,7.569 3.689,0.573 21.945,-10.177 21.945,-10.177z"/>
   <path class="fil16" d="M180.157 199.084c0.128,1.784 -18.7,10.051 -20.544,10.5 -0.074,0.02 -0.154,0.027 -0.248,0.034 -2.421,0.141 -12.679,-3.245 -13.108,-3.983 -0.443,-0.744 -5.331,-14.55 -5.465,-14.939 0.342,0.134 11.211,4.573 12.525,4.7l0.061 0c1.769,-0.127 20.309,-9.541 21.757,-9.474 1.462,0.061 4.895,11.386 5.022,13.162z"/>
   <path class="fil3" d="M159.365 209.618c-2.421,0.141 -12.679,-3.245 -13.108,-3.983 -0.443,-0.744 -5.331,-14.55 -5.465,-14.939 0.342,0.134 11.211,4.573 12.525,4.7l0.061 0c1.883,4.667 4.351,10.44 5.987,14.222z"/>
   <path class="fil3" d="M172.589 191.581c-3.17,1.484 -0.573,7.696 2.798,6.488 3.371,-1.209 0.191,-7.887 -2.798,-6.488z"/>
  </g>
  <g id="_2109318210544">
   <path class="fil3" d="M458.991 309.302c0,3.718 -37.515,6.732 -83.79,6.732 -46.277,0 -83.791,-3.014 -83.791,-6.732 0,-3.718 37.514,-6.732 83.791,-6.732 46.275,0 83.79,3.014 83.79,6.732z"/>
   <path class="fil3" d="M440.402 309.302c0,2.1 -29.192,3.802 -65.201,3.802 -36.01,0 -65.202,-1.702 -65.202,-3.802 0,-2.1 29.192,-3.802 65.202,-3.802 36.009,0 65.201,1.702 65.201,3.802z"/>
  </g>
  <g id="_2109318203728">
   <g>
    <g>
     <path class="fil11" d="M332.836 288.73c0,0 -31.776,-8.006 -38.132,-16.092 -6.35,-8.086 -0.483,-11.439 -0.483,-11.439 0,0 -24.225,-14.127 -25.405,-21.965 -0.617,-4.104 1.294,-6.095 3.252,-7.061 1.783,-0.878 3.614,-0.905 3.614,-0.905 0,0 -14.51,-11.07 -19.431,-21.939 -4.928,-10.875 7.603,-12.605 7.603,-12.605 0,0 -17.862,-38.46 -1.904,-41.33 15.951,-2.863 22.18,24.145 22.18,24.145 0,0 10.353,-10.393 15.884,4.137 0.503,1.327 1.033,2.843 1.563,4.499 5.37,16.474 12.042,46.982 12.042,46.982 0,0 12.927,0.885 10.245,24.353 0,0 6.987,-2.387 7.336,3.855 0.348,6.242 1.636,25.365 1.636,25.365z"/>
     <path class="fil21" d="M321.675 273.647c0.891,0.976 -33.909,-58.97 -49.807,-92.465 0,0 25.585,65.924 49.807,92.465z"/>
     <path class="fil3" d="M332.836 288.73c0,0 -31.776,-8.006 -38.132,-16.092 -6.35,-8.086 -0.483,-11.439 -0.483,-11.439 0,0 -24.225,-14.127 -25.405,-21.965 -0.617,-4.104 1.294,-6.095 3.252,-7.061 21.858,10.386 27.497,-13.564 22.884,-27.799 -4.043,-12.491 -0.744,-12.652 6.625,-16.199 5.37,16.474 12.042,46.982 12.042,46.982 0,0 12.927,0.885 10.245,24.353 0,0 6.987,-2.387 7.336,3.855 0.348,6.242 1.636,25.365 1.636,25.365z"/>
    </g>
    <g>
     <path class="fil1" d="M327.444 298c0,0 -23.041,3.783 -29.491,0.301 -6.445,-3.484 -3.561,-7.34 -3.561,-7.34 0,0 -19.843,-2.36 -22.839,-7.148 -1.567,-2.508 -0.883,-4.351 0.122,-5.538 0.917,-1.08 2.106,-1.617 2.106,-1.617 0,0 -12.626,-3.119 -18.926,-8.826 -6.308,-5.711 1.392,-10.397 1.392,-10.397 0,0 -22.588,-20.071 -12.972,-26.475 9.614,-6.398 21.349,9.488 21.349,9.488 0,0 3.818,-9.73 11.557,-1.803 0.705,0.725 1.481,1.565 2.297,2.497 8.185,9.245 21.203,27.293 21.203,27.293 0,0 8.701,-3.09 13.607,13.01 0,0 3.89,-3.542 5.889,0.439 1.999,3.981 8.267,16.116 8.267,16.116z"/>
     <path class="fil21" d="M315.869 291.308c0.859,0.385 -38.897,-28.924 -58.794,-46.306 0,0 35.43,35.83 58.794,46.306z"/>
     <path class="fil3" d="M327.444 298c0,0 -23.041,3.783 -29.491,0.301 -6.445,-3.484 -3.561,-7.34 -3.561,-7.34 0,0 -19.843,-2.36 -22.839,-7.148 -1.567,-2.508 -0.883,-4.351 0.122,-5.538 17.235,0.586 14.124,-16.669 7.07,-24.664 -6.187,-7.018 -4.077,-8.059 -0.267,-12.469 8.185,9.245 21.203,27.293 21.203,27.293 0,0 8.701,-3.09 13.607,13.01 0,0 3.89,-3.542 5.889,0.439 1.999,3.981 8.267,16.116 8.267,16.116z"/>
    </g>
   </g>
   <g>
    <g>
     <path class="fil11" d="M413.524 288.73c0,0 31.775,-8.006 38.131,-16.092 6.35,-8.086 0.483,-11.439 0.483,-11.439 0,0 24.226,-14.127 25.406,-21.965 0.617,-4.104 -1.295,-6.095 -3.252,-7.061 -1.784,-0.878 -3.614,-0.905 -3.614,-0.905 0,0 14.509,-11.07 19.431,-21.939 4.928,-10.875 -7.603,-12.605 -7.603,-12.605 0,0 17.861,-38.46 1.904,-41.33 -15.952,-2.863 -22.18,24.145 -22.18,24.145 0,0 -10.353,-10.393 -15.885,4.137 -0.503,1.327 -1.032,2.843 -1.562,4.499 -5.371,16.474 -12.042,46.982 -12.042,46.982 0,0 -12.928,0.885 -10.246,24.353 0,0 -6.986,-2.387 -7.335,3.855 -0.349,6.242 -1.636,25.365 -1.636,25.365z"/>
     <path class="fil21" d="M424.684 273.647c-0.89,0.976 33.909,-58.97 49.808,-92.465 0,0 -25.586,65.924 -49.808,92.465z"/>
     <path class="fil3" d="M413.524 288.73c0,0 31.775,-8.006 38.131,-16.092 6.35,-8.086 0.483,-11.439 0.483,-11.439 0,0 24.226,-14.127 25.406,-21.965 0.617,-4.104 -1.295,-6.095 -3.252,-7.061 -21.859,10.386 -27.498,-13.564 -22.885,-27.799 4.044,-12.491 0.745,-12.652 -6.624,-16.199 -5.371,16.474 -12.042,46.982 -12.042,46.982 0,0 -12.928,0.885 -10.246,24.353 0,0 -6.986,-2.387 -7.335,3.855 -0.349,6.242 -1.636,25.365 -1.636,25.365z"/>
    </g>
    <g>
     <path class="fil1" d="M418.916 298c0,0 23.041,3.783 29.49,0.301 6.445,-3.484 3.562,-7.34 3.562,-7.34 0,0 19.843,-2.36 22.838,-7.148 1.568,-2.508 0.884,-4.351 -0.122,-5.538 -0.916,-1.08 -2.105,-1.617 -2.105,-1.617 0,0 12.625,-3.119 18.926,-8.826 6.308,-5.711 -1.393,-10.397 -1.393,-10.397 0,0 22.589,-20.071 12.972,-26.475 -9.614,-6.398 -21.349,9.488 -21.349,9.488 0,0 -3.817,-9.73 -11.556,-1.803 -0.705,0.725 -1.482,1.565 -2.298,2.497 -8.185,9.245 -21.203,27.293 -21.203,27.293 0,0 -8.701,-3.09 -13.606,13.01 0,0 -3.89,-3.542 -5.889,0.439 -1.999,3.981 -8.267,16.116 -8.267,16.116z"/>
     <path class="fil21" d="M430.49 291.308c-0.859,0.385 38.898,-28.924 58.794,-46.306 0,0 -35.43,35.83 -58.794,46.306z"/>
     <path class="fil3" d="M418.916 298c0,0 23.041,3.783 29.49,0.301 6.445,-3.484 3.562,-7.34 3.562,-7.34 0,0 19.843,-2.36 22.838,-7.148 1.568,-2.508 0.884,-4.351 -0.122,-5.538 -17.234,0.586 -14.124,-16.669 -7.069,-24.664 6.187,-7.018 4.076,-8.059 0.266,-12.469 -8.185,9.245 -21.203,27.293 -21.203,27.293 0,0 -8.701,-3.09 -13.606,13.01 0,0 -3.89,-3.542 -5.889,0.439 -1.999,3.981 -8.267,16.116 -8.267,16.116z"/>
    </g>
   </g>
  </g>
  <g id="_2109318192976">
   <g>
    <path class="fil9" d="M441.585 67.311l0 225.948c0,7.459 -6.048,13.506 -13.506,13.506l-109.796 0c-7.465,0 -13.506,-6.047 -13.506,-13.506l0 -225.948c0,-7.465 6.041,-13.506 13.506,-13.506l109.796 0c7.458,0 13.506,6.041 13.506,13.506z"/>
    <path class="fil10" d="M438.904 89.92l0 203.94c0,5.638 -4.587,10.225 -10.226,10.225l-110.995 0c-5.639,0 -10.225,-4.587 -10.225,-10.225l0 -71.885c66.688,-26.928 119.464,-69.485 131.446,-132.055z"/>
    <path class="fil22" d="M432.079 71.508l0 217.553c0,4.381 -3.546,7.927 -7.92,7.927l-101.959 0c-4.373,0 -7.919,-3.546 -7.919,-7.927l0 -217.553c0,-4.381 3.546,-7.927 7.919,-7.927l28.801 0 0 1.521c0,2.124 1.727,3.852 3.852,3.852l36.654 0c2.124,0 3.852,-1.728 3.852,-3.852l0 -1.521 28.8 0c4.374,0 7.92,3.546 7.92,7.927z"/>
    <path class="fil21" d="M358.92 63.581c0,1.241 -1.006,2.247 -2.248,2.247 -1.241,0 -2.247,-1.006 -2.247,-2.247 0,-1.241 1.006,-2.248 2.247,-2.248 1.242,0 2.248,1.007 2.248,2.248z"/>
    <path class="fil21" d="M389.429 65.828l-23.793 0c-1.241,0 -2.247,-1.006 -2.247,-2.247 0,-1.241 1.006,-2.248 2.247,-2.248l23.793 0c1.241,0 2.247,1.007 2.247,2.248 0,1.241 -1.006,2.247 -2.247,2.247z"/>
   </g>
   <g>
    <path class="fil8" d="M424.159 67.714l-25.106 0c-1.084,3.125 -4.057,5.373 -7.546,5.373l-36.654 0c-3.489,0 -6.462,-2.248 -7.547,-5.373l-0.067 0 -28.825 28.826 0 105.993 109.532 -109.532 0 -21.493c0,-2.092 -1.699,-3.794 -3.787,-3.794z"/>
    <polygon class="fil8" points="318.414,231.028 318.414,261.63 427.946,152.091 427.946,121.488 "/>
    <path class="fil8" d="M318.414 278.338l0 10.722c0,2.093 1.698,3.795 3.786,3.795l87.698 0 18.048 -18.047 0 -105.995 -109.532 109.525z"/>
   </g>
   <path class="fil13" d="M441.585 67.311l0 3.361c-1.438,-2.884 -3.452,-6.743 -4.876,-8.778 -2.456,-3.508 -7.893,-4.209 -12.279,-4.209l-102.632 0c-3.08,0 -6.041,1.193 -8.265,3.332 -1.109,1.074 -1.993,2.337 -2.61,3.719 -0.625,1.382 -0.982,2.884 -1.038,4.42l-5.108 133.988 0 -135.833c0,-7.465 6.041,-13.506 13.506,-13.506l109.796 0c7.458,0 13.506,6.041 13.506,13.506z"/>
  </g>
  <polygon class="fil23" points="318.414,231.028 427.946,231.028 427.946,271.401 407.272,280.401 318.414,280.401 "/>
  <path class="fil19" d="M424.846 164.764c0,28.534 -23.132,51.665 -51.666,51.665 -28.534,0 -51.666,-23.131 -51.666,-51.665 0,-28.535 23.132,-51.666 51.666,-51.666 28.534,0 51.666,23.131 51.666,51.666z"/>
  <path class="fil5" d="M422.366 164.766c0,27.123 -22.064,49.186 -49.186,49.186 -18.534,0 -34.711,-10.3 -43.094,-25.486 7.035,3.886 15.112,6.093 23.701,6.093 27.122,0 49.185,-22.063 49.185,-49.186 0,-8.589 -2.207,-16.673 -6.092,-23.7 15.186,8.382 25.486,24.56 25.486,43.093z"/>
  <path class="fil18" d="M411.016 164.764c0,20.896 -16.94,37.836 -37.836,37.836 -20.896,0 -37.836,-16.94 -37.836,-37.836 0,-20.897 16.94,-37.836 37.836,-37.836 20.896,0 37.836,16.939 37.836,37.836z"/>
  <g id="_2109318169552">
   <path class="fil16" d="M406.257 90.283c0,0 -2.592,5.345 -9.233,8.18l3.321 5.426c0,0 7.37,-2.267 10.448,-7.937l-4.536 -5.669z"/>
   <path class="fil16" d="M367.813 92.983c0,0 1.911,-3.06 6.105,-4.344l-1.655 -3.491c0,0 -4.598,0.893 -6.823,4.119l2.373 3.716z"/>
   <path class="fil16" d="M329.731 214.804c0,0 5.926,-0.413 11.691,3.935l3.052 -5.582c0,0 -5.635,-5.262 -12.084,-5.109l-2.659 6.756z"/>
   <path class="fil24" d="M330.325 84.543c0,0 3.079,6.402 10.279,9.932l-5.374 6.781c0,0 -7.475,-2.895 -10.576,-12.055l5.671 -4.658z"/>
   <path class="fil1" d="M421.73 120.373c0,0 -0.312,4.048 -3.983,7.23l3.265 3.096c0,0 4.332,-3.828 5.146,-8.724l-4.428 -1.602z"/>
   <path class="fil24" d="M414.306 208.532c0,0 -0.525,6.824 -6.714,12.189l5.503 5.22c0,0 7.304,-6.453 8.675,-14.708l-7.464 -2.701z"/>
   <path class="fil1" d="M329.74 128.979c0,0 1.475,-4.035 6.125,-6.23l-2.441 -4.088c0,0 -5.51,2.663 -7.738,7.42l4.054 2.898z"/>
   <path class="fil1" d="M370.033 227.726c0,0 1.089,-2.98 4.523,-4.6l-1.803 -3.019c0,0 -4.068,1.966 -5.714,5.48l2.994 2.139z"/>
  </g>
  <path class="fil18" d="M230.78 88.946c-1.919,-4.96 -4.214,-9.416 -6.632,-13.096l-5.345 -13.819 -8.953 3.463c-5.697,2.204 -5.563,16.276 0.299,31.432 5.863,15.156 15.233,25.656 20.93,23.452l8.953 -3.462 -5.345 -13.819c-0.688,-4.35 -1.989,-9.191 -3.907,-14.151z"/>
  <g id="_2109318167600">
   <path class="fil5" d="M232.373 98.063c0.448,1.782 0.81,3.54 1.079,5.23l0.019 0.131 4.226 10.926 -10.969 4.243c-3.45,-1.829 -7.776,-6.684 -11.626,-13.849l17.271 -6.681z"/>
   <path class="fil5" d="M229.612 89.398c0.589,1.522 1.124,3.056 1.603,4.584l-18.003 6.964c-0.656,-1.42 -1.292,-2.914 -1.895,-4.471 -0.456,-1.18 -0.875,-2.343 -1.254,-3.485l18.128 -7.012c0.499,1.118 0.974,2.264 1.421,3.42z"/>
   <path class="fil5" d="M226.832 83.09l-17.707 6.849c-0.446,-1.546 -0.812,-3.047 -1.115,-4.491l16.628 -6.432c0.761,1.294 1.494,2.658 2.194,4.074z"/>
   <path class="fil5" d="M222.114 74.063l0.903 2.336 -15.558 6.017c-0.134,-0.878 -0.242,-1.736 -0.323,-2.559l14.978 -5.794z"/>
  </g>
  <path class="fil19" d="M239.733 85.484c5.862,15.155 5.996,29.228 0.299,31.432 -5.697,2.203 -15.067,-8.297 -20.93,-23.453 -5.862,-15.156 -5.996,-29.228 -0.299,-31.432 5.696,-2.203 15.067,8.297 20.93,23.453z"/>
  <path class="fil20" d="M236.295 86.813c3.909,10.105 3.998,19.486 0.199,20.955 -0.592,0.229 -1.249,0.255 -1.943,0.089 -3.753,-0.884 -8.714,-7.199 -12.012,-15.723 -3.297,-8.525 -3.876,-16.535 -1.696,-19.714 0.403,-0.59 0.906,-1.012 1.498,-1.241 3.799,-1.47 10.046,5.529 13.954,15.634z"/>
  <path class="fil18" d="M236.295 86.813c3.909,10.105 3.998,19.486 0.199,20.955 -0.592,0.229 -1.249,0.255 -1.943,0.089 2.18,-3.179 1.601,-11.189 -1.696,-19.713 -3.298,-8.525 -8.26,-14.839 -12.012,-15.724 0.403,-0.59 0.906,-1.012 1.498,-1.241 3.799,-1.47 10.046,5.529 13.954,15.634z"/>
  <path class="fil18" d="M293.912 145.381c0,-13.014 -7.981,-23.893 -18.66,-26.631l0 -0.671 -5.263 0c-13.213,0 -23.924,12.223 -23.924,27.302 0,15.08 10.711,27.303 23.924,27.303l5.263 0 0 -0.671c10.679,-2.738 18.66,-13.618 18.66,-26.632z"/>
  <g id="_2109318164176">
   <path class="fil13 str1" d="M280.559 168.776l0 -0.251c-0.144,0.086 -0.292,0.168 -0.439,0.251l0.439 0z"/>
   <path class="fil5" d="M249.056 155.901c2.164,5.599 5.999,10.165 10.787,12.875l20.277 0c0.147,-0.083 0.295,-0.165 0.439,-0.251l0 -12.624 -31.503 0z"/>
   <path class="fil5" d="M275.52 146.48l-28.379 0c0.1,2.742 0.566,5.376 1.351,7.836l27.028 0 0 -7.836z"/>
   <path class="fil5" d="M274.243 140.611l-26.738 0c-0.232,1.431 -0.362,2.902 -0.38,4.404l27.118 0 0 -4.404z"/>
   <path class="fil5" d="M274.243 136.625l-25.803 0c-0.225,0.72 -0.426,1.454 -0.596,2.202l26.399 0 0 -2.202z"/>
  </g>
  <path class="fil19" d="M299.175 145.381c0,15.08 -10.71,27.303 -23.923,27.303 -13.213,0 -23.923,-12.223 -23.923,-27.303 0,-15.079 10.71,-27.302 23.923,-27.302 13.213,0 23.923,12.223 23.923,27.302z"/>
  <path class="fil5" d="M298.027 145.383c0,14.333 -10.216,25.992 -22.775,25.992 -8.582,0 -16.073,-5.443 -19.954,-13.468 3.257,2.053 6.997,3.22 10.974,3.22 12.559,0 22.775,-11.66 22.775,-25.993 0,-4.538 -1.022,-8.811 -2.821,-12.524 7.032,4.43 11.801,12.979 11.801,22.773z"/>
  <path class="fil18" d="M292.77 145.381c0,11.044 -7.843,19.995 -17.52,19.995 -0.7,0 -1.393,-0.048 -2.07,-0.14 -8.697,-1.166 -15.449,-9.611 -15.449,-19.855 0,-10.244 6.752,-18.688 15.449,-19.854 0.677,-0.092 1.37,-0.14 2.07,-0.14 9.677,0 17.52,8.951 17.52,19.994z"/>
  <path class="fil20" d="M288.625 145.381c0,10.244 -6.745,18.684 -15.445,19.855 -1.654,-0.223 -3.239,-0.703 -4.716,-1.415 -3.411,-1.638 -6.27,-4.474 -8.18,-8.043 -1.619,-3.027 -2.553,-6.587 -2.553,-10.397 0,-10.244 6.752,-18.688 15.449,-19.854 8.7,1.171 15.445,9.61 15.445,19.854z"/>
  <path class="fil18" d="M166.331 61.995c-11.634,-5.834 -24.937,-3.577 -32.171,4.742l-0.6 -0.301 -2.359 4.705c-5.923,11.81 0.202,26.864 13.681,33.624 13.479,6.759 29.208,2.665 35.13,-9.146l2.36 -4.705 -0.6 -0.301c2.34,-10.773 -3.808,-22.784 -15.441,-28.618z"/>
  <g id="_2109318158512">
   <path class="fil13 str1" d="M181.257 84.418l-0.224 -0.113c0.012,0.169 0.019,0.337 0.028,0.506l0.196 -0.393z"/>
   <path class="fil5" d="M155.626 106.807c5.975,0.576 11.776,-0.805 16.345,-3.871l9.09 -18.125c-0.009,-0.169 -0.016,-0.337 -0.028,-0.506l-11.285 -5.659 -14.122 28.161z"/>
   <path class="fil5" d="M159.068 78.928l-12.721 25.368c2.495,1.14 5.059,1.903 7.61,2.305l12.116 -24.16 -7.005 -3.513z"/>
   <path class="fil5" d="M153.25 77.438l-11.987 23.902c1.176,0.848 2.432,1.624 3.767,2.314l12.157 -24.242 -3.937 -1.974z"/>
   <path class="fil5" d="M149.686 75.651l-11.567 23.066c0.543,0.524 1.109,1.032 1.702,1.519l11.834 -23.598 -1.969 -0.987z"/>
  </g>
  <path class="fil19" d="M168.69 57.29c13.479,6.759 19.604,21.814 13.682,33.624 -5.923,11.811 -21.652,15.906 -35.13,9.146 -13.479,-6.76 -19.605,-21.814 -13.682,-33.624 5.923,-11.811 21.651,-15.906 35.13,-9.146z"/>
  <path class="fil5" d="M168.177 58.317c12.812,6.425 18.655,20.784 13.025,32.01 -3.848,7.672 -12.071,11.928 -20.984,11.8 3.295,-1.991 6.014,-4.812 7.797,-8.367 5.63,-11.226 -0.213,-25.585 -13.025,-32.01 -4.057,-2.035 -8.334,-3.036 -12.46,-3.093 7.112,-4.3 16.892,-4.73 25.647,-0.34z"/>
  <path class="fil18" d="M165.819 63.016c9.872,4.95 14.357,15.974 10.019,24.624 -0.314,0.626 -0.667,1.224 -1.053,1.788 -4.942,7.251 -15.516,9.501 -24.673,4.909 -9.158,-4.592 -13.679,-14.413 -10.823,-22.71 0.222,-0.647 0.489,-1.288 0.803,-1.913 4.338,-8.65 15.855,-11.649 25.727,-6.698z"/>
  <path class="fil20" d="M163.96 66.721c9.158,4.592 13.678,14.405 10.825,22.707 -0.941,1.378 -2.081,2.579 -3.379,3.581 -2.993,2.314 -6.81,3.599 -10.856,3.707 -3.432,0.09 -7.033,-0.671 -10.438,-2.379 -9.158,-4.592 -13.679,-14.413 -10.823,-22.71 4.947,-7.252 15.514,-9.498 24.671,-4.906z"/>
  <g id="_2109322238928">
   <g>
    <polygon class="fil20" points="232.388,275.153 232.388,286.612 171.842,286.612 171.842,275.153 "/>
    <polygon class="fil5" points="228.914,284.622 215.221,284.622 215.221,277.148 228.914,277.148 "/>
    <polygon class="fil5" points="211.529,284.622 201.332,284.622 201.332,277.148 211.529,277.148 "/>
    <polygon class="fil5" points="198.619,284.622 194.437,284.622 194.437,277.148 198.619,277.148 "/>
    <polygon class="fil19" points="232.388,275.155 232.388,275.248 171.844,279.64 171.844,275.155 "/>
   </g>
   <g>
    <polygon class="fil20" points="232.388,286.612 232.388,298.078 171.842,298.078 171.842,286.612 "/>
    <polygon class="fil5" points="228.914,296.082 215.221,296.082 215.221,288.608 228.914,288.608 "/>
    <polygon class="fil5" points="211.529,296.082 201.332,296.082 201.332,288.608 211.529,288.608 "/>
    <polygon class="fil5" points="198.619,296.082 194.437,296.082 194.437,288.608 198.619,288.608 "/>
    <polygon class="fil19" points="232.388,286.615 232.388,286.708 171.844,291.099 171.844,286.615 "/>
   </g>
   <g>
    <polygon class="fil20" points="232.388,298.078 232.388,309.537 171.842,309.537 171.842,298.078 "/>
    <polygon class="fil5" points="228.914,307.542 215.221,307.542 215.221,300.068 228.914,300.068 "/>
    <polygon class="fil5" points="211.529,307.542 201.332,307.542 201.332,300.068 211.529,300.068 "/>
    <polygon class="fil5" points="198.619,307.542 194.437,307.542 194.437,300.068 198.619,300.068 "/>
    <polygon class="fil19" points="232.388,298.075 232.388,298.168 171.844,302.559 171.844,298.075 "/>
   </g>
  </g>
  <path class="fil5" d="M232.388 275.153l0 34.384 -6.376 0c-2.97,-3.132 -5.954,-7.02 -8.677,-11.459 -0.066,-0.114 -0.14,-0.228 -0.207,-0.342 -2.293,-3.782 -4.157,-7.563 -5.545,-11.124 -1.663,-4.258 -2.649,-8.2 -2.89,-11.459l23.695 0z"/>
  <path class="fil18" d="M242.46 277.865c-3.682,-3.838 -7.517,-7.065 -11.166,-9.529l-10.258 -10.692 -6.927 6.646c-4.407,4.228 1.14,17.163 12.389,28.889 11.25,11.726 23.944,17.804 28.351,13.575l6.927 -6.645 -10.257 -10.692c-2.311,-3.748 -5.377,-7.714 -9.059,-11.552z"/>
  <g id="_2109322235472">
   <path class="fil5" d="M247.443 285.664c1.1,1.472 2.112,2.954 3.011,4.41l0.069 0.114 8.11 8.454 -8.487 8.142c-3.889,-0.358 -9.752,-3.172 -16.065,-8.3l13.362 -12.82z"/>
   <path class="fil5" d="M241.557 278.732c1.13,1.178 2.214,2.387 3.246,3.612l-13.929 13.364c-1.153,-1.057 -2.316,-2.191 -3.472,-3.396 -0.876,-0.913 -1.71,-1.824 -2.5,-2.732l14.025 -13.456c0.892,0.839 1.772,1.714 2.63,2.608z"/>
   <path class="fil5" d="M236.561 273.982l-13.701 13.144c-1.007,-1.255 -1.923,-2.499 -2.759,-3.714l12.866 -12.344c1.2,0.902 2.402,1.877 3.594,2.914z"/>
   <path class="fil5" d="M228.728 267.471l1.734 1.807 -12.038 11.548c-0.462,-0.759 -0.892,-1.509 -1.284,-2.237l11.588 -11.118z"/>
  </g>
  <path class="fil19" d="M249.387 271.22c11.25,11.726 16.797,24.66 12.389,28.889 -4.408,4.229 -17.101,-1.85 -28.351,-13.576 -11.25,-11.726 -16.797,-24.66 -12.389,-28.889 4.408,-4.228 17.101,1.849 28.351,13.576z"/>
  <path class="fil20" d="M246.728 273.771c7.5,7.818 11.197,16.44 8.258,19.261 -0.458,0.439 -1.054,0.716 -1.759,0.831 -3.803,0.63 -10.815,-3.285 -17.142,-9.881 -6.328,-6.596 -9.949,-13.764 -9.162,-17.537 0.144,-0.7 0.445,-1.284 0.903,-1.723 2.94,-2.82 11.401,1.231 18.902,9.049z"/>
  <path class="fil18" d="M246.728 273.771c7.5,7.818 11.197,16.44 8.258,19.261 -0.458,0.439 -1.054,0.716 -1.759,0.831 0.787,-3.774 -2.834,-10.942 -9.162,-17.538 -6.327,-6.595 -13.339,-10.51 -17.142,-9.88 0.144,-0.7 0.445,-1.284 0.903,-1.723 2.94,-2.82 11.401,1.231 18.902,9.049z"/>
  <g id="_2109322229072">
   <g>
    <path class="fil18" d="M212.541 143.882c-0.758,1.396 -2.504,1.913 -3.9,1.155 -1.396,-0.757 -1.913,-2.504 -1.155,-3.899 0.757,-1.396 2.503,-1.914 3.899,-1.156 1.396,0.758 1.914,2.504 1.156,3.9z"/>
    <path class="fil13" d="M214.89 156.156c-0.636,1.172 -2.103,1.607 -3.275,0.97 -1.173,-0.636 -1.607,-2.103 -0.971,-3.275 0.637,-1.173 2.103,-1.607 3.276,-0.971 1.172,0.636 1.607,2.103 0.97,3.276z"/>
    <path class="fil24" d="M228.837 153.314c-0.402,0.74 -1.327,1.014 -2.067,0.612 -0.74,-0.402 -1.015,-1.327 -0.613,-2.067 0.402,-0.741 1.327,-1.015 2.067,-0.613 0.741,0.402 1.015,1.327 0.613,2.068z"/>
   </g>
   <g>
    <path class="fil18" d="M146.841 233.687c0,1.204 -0.975,2.179 -2.179,2.179 -1.203,0 -2.179,-0.975 -2.179,-2.179 0,-1.203 0.976,-2.179 2.179,-2.179 1.204,0 2.179,0.976 2.179,2.179z"/>
    <path class="fil1" d="M156.48 247.054c0,1.366 -1.107,2.473 -2.472,2.473 -1.366,0 -2.473,-1.107 -2.473,-2.473 0,-1.365 1.107,-2.472 2.473,-2.472 1.365,0 2.472,1.107 2.472,2.472z"/>
    <path class="fil18" d="M146.594 253.088c0,0.624 -0.506,1.13 -1.13,1.13 -0.624,0 -1.129,-0.506 -1.129,-1.13 0,-0.624 0.505,-1.13 1.129,-1.13 0.624,0 1.13,0.506 1.13,1.13z"/>
   </g>
   <g>
    <path class="fil9" d="M242.748 219.854c0,2.43 -1.969,4.399 -4.399,4.399 -2.429,0 -4.398,-1.969 -4.398,-4.399 0,-2.429 1.969,-4.398 4.398,-4.398 2.43,0 4.399,1.969 4.399,4.398z"/>
    <path class="fil18" d="M228.33 235.631c0,0.637 -0.516,1.153 -1.152,1.153 -0.637,0 -1.154,-0.516 -1.154,-1.153 0,-0.637 0.517,-1.153 1.154,-1.153 0.636,0 1.152,0.516 1.152,1.153z"/>
    <path class="fil18" d="M237.911 202.765c0,1.094 -0.887,1.981 -1.98,1.981 -1.094,0 -1.98,-0.887 -1.98,-1.981 0,-1.093 0.886,-1.98 1.98,-1.98 1.093,0 1.98,0.887 1.98,1.98z"/>
   </g>
  </g>
  <g id="_2109322222928">
   <g>
    <path class="fil18" d="M276.022 78.584c-0.758,1.396 -2.504,1.913 -3.9,1.155 -1.396,-0.757 -1.913,-2.503 -1.155,-3.899 0.757,-1.396 2.503,-1.914 3.899,-1.156 1.396,0.758 1.914,2.504 1.156,3.9z"/>
    <path class="fil16" d="M278.371 90.858c-0.636,1.172 -2.103,1.607 -3.275,0.971 -1.173,-0.637 -1.607,-2.103 -0.971,-3.276 0.637,-1.172 2.103,-1.607 3.276,-0.971 1.172,0.637 1.607,2.103 0.97,3.276z"/>
    <path class="fil24" d="M292.318 88.016c-0.402,0.74 -1.327,1.014 -2.067,0.612 -0.74,-0.401 -1.015,-1.327 -0.613,-2.067 0.402,-0.74 1.327,-1.015 2.067,-0.613 0.741,0.402 1.015,1.328 0.613,2.068z"/>
   </g>
   <g>
    <path class="fil18" d="M447.508 63.595c1.233,-1.002 3.044,-0.815 4.046,0.418 1.002,1.232 0.815,3.044 -0.418,4.046 -1.232,1.001 -3.043,0.815 -4.045,-0.418 -1.002,-1.233 -0.815,-3.044 0.417,-4.046z"/>
    <path class="fil16" d="M443.42 45.206c1.035,-0.842 2.557,-0.685 3.398,0.35 0.842,1.036 0.685,2.557 -0.35,3.399 -1.036,0.841 -2.557,0.684 -3.399,-0.351 -0.841,-1.035 -0.684,-2.557 0.351,-3.398z"/>
    <path class="fil24" d="M428.161 41.922c0.654,-0.531 1.614,-0.432 2.145,0.222 0.532,0.653 0.432,1.614 -0.221,2.145 -0.654,0.531 -1.614,0.432 -2.145,-0.222 -0.531,-0.653 -0.432,-1.614 0.221,-2.145z"/>
   </g>
   <g>
    <path class="fil18" d="M42.694 180.189c1.564,-0.276 3.056,0.768 3.333,2.332 0.276,1.564 -0.767,3.056 -2.331,3.333 -1.565,0.276 -3.057,-0.767 -3.333,-2.332 -0.277,-1.564 0.767,-3.056 2.331,-3.333z"/>
    <path class="fil16" d="M50.833 170.707c1.314,-0.233 2.567,0.644 2.8,1.958 0.232,1.314 -0.645,2.567 -1.959,2.799 -1.313,0.233 -2.567,-0.644 -2.799,-1.958 -0.232,-1.313 0.644,-2.567 1.958,-2.799z"/>
    <path class="fil24" d="M39.923 161.566c0.829,-0.147 1.62,0.406 1.767,1.236 0.147,0.829 -0.407,1.62 -1.236,1.767 -0.829,0.146 -1.62,-0.407 -1.767,-1.236 -0.147,-0.83 0.407,-1.621 1.236,-1.767z"/>
   </g>
   <g>
    <path class="fil18" d="M66.49 279.007c-0.185,1.189 -1.298,2.003 -2.487,1.819 -1.19,-0.185 -2.004,-1.298 -1.82,-2.488 0.185,-1.189 1.299,-2.003 2.488,-1.819 1.189,0.185 2.004,1.298 1.819,2.488z"/>
    <path class="fil1" d="M73.965 293.694c-0.209,1.35 -1.473,2.274 -2.823,2.064 -1.349,-0.209 -2.273,-1.473 -2.064,-2.823 0.209,-1.349 1.473,-2.273 2.823,-2.064 1.349,0.21 2.273,1.473 2.064,2.823z"/>
    <path class="fil18" d="M63.27 298.14c-0.096,0.616 -0.673,1.038 -1.289,0.943 -0.617,-0.096 -1.039,-0.673 -0.943,-1.29 0.095,-0.616 0.673,-1.038 1.289,-0.943 0.617,0.096 1.039,0.673 0.943,1.29z"/>
   </g>
   <g>
    <path class="fil9" d="M279.168 270.047c1.155,2.138 0.358,4.806 -1.779,5.961 -2.137,1.155 -4.806,0.358 -5.961,-1.779 -1.154,-2.138 -0.358,-4.806 1.78,-5.961 2.137,-1.154 4.806,-0.358 5.96,1.779z"/>
    <path class="fil18" d="M281.191 293.63c0.302,0.561 0.093,1.26 -0.467,1.563 -0.56,0.302 -1.26,0.094 -1.562,-0.467 -0.303,-0.56 -0.094,-1.259 0.466,-1.562 0.56,-0.303 1.26,-0.094 1.563,0.466z"/>
    <path class="fil18" d="M264.189 267.9c0.52,0.962 0.161,2.164 -0.801,2.683 -0.962,0.52 -2.163,0.162 -2.683,-0.8 -0.52,-0.962 -0.161,-2.164 0.801,-2.684 0.962,-0.52 2.163,-0.161 2.683,0.801z"/>
   </g>
  </g>
  <g id="_2109322219824">
   <path class="fil25" d="M377.354 154.899c9.703,3.317 14.88,13.872 11.563,23.575 -3.317,9.703 -13.872,14.88 -23.575,11.564 -9.704,-3.318 -14.881,-13.873 -11.563,-23.576 3.316,-9.703 13.871,-14.88 23.575,-11.563zm-2.746 8.032c5.268,1.8 8.078,7.53 6.277,12.798 -1.8,5.267 -7.53,8.077 -12.798,6.277 -5.267,-1.801 -8.078,-7.531 -6.277,-12.798 1.801,-5.268 7.531,-8.078 12.798,-6.277z"/>
   <path class="fil26" style="mask:url(#id0)" d="M363.635 155.579c2.495,-1.14 5.245,-1.731 8.054,-1.679 -0.99,0.723 -1.711,1.517 -2.233,2.514 -0.617,1.178 -0.956,2.64 -1.081,3.636 -0.125,0.996 -0.037,1.527 0.199,1.864 0.164,0.235 0.399,0.377 0.483,0.738 -3.033,0.711 -5.674,2.811 -6.97,5.835 -0.199,-0.155 -0.39,-0.327 -0.566,-0.518 -1.061,-1.15 -1.587,-2.975 -1.223,-5.117 0.365,-2.141 1.619,-4.597 2.945,-6.675 0.13,-0.203 0.26,-0.402 0.392,-0.598z"/>
   <path class="fil25" d="M382.938 138.83c1.36,0.465 2.671,1.009 3.929,1.626l-3.91 11.439c-1.21,-0.704 -2.505,-1.3 -3.88,-1.77 -1.375,-0.47 -2.764,-0.792 -4.152,-0.976l3.911 -11.439c1.372,0.283 2.742,0.655 4.102,1.12z"/>
   <path class="fil25" d="M392.363 143.264c2.565,1.893 4.817,4.124 6.711,6.608l-5.498 16.081c-0.786,-3.915 -2.655,-7.554 -5.388,-10.476l4.175 -12.213z"/>
   <path class="fil25" d="M362.769 140.164c3.018,-0.804 6.164,-1.19 9.351,-1.116l-10.224 29.909 -8.032 -2.746 8.905 -26.047z"/>
  </g>
  <path class="fil5" d="M408.536 164.766c0,19.493 -15.864,35.356 -35.356,35.356 -13.491,0 -25.238,-7.597 -31.198,-18.732 4.96,2.654 10.622,4.159 16.632,4.159 19.493,0 35.348,-15.864 35.348,-35.357 0,-6.001 -1.505,-11.664 -4.158,-16.624 11.135,5.96 18.732,17.707 18.732,31.198z"/>
  <g id="_2109322215088">
   <path class="fil25" d="M275.937 138.744c3.926,1.872 6.02,7.828 4.678,13.302 -1.342,5.475 -5.612,8.397 -9.538,6.525 -3.926,-1.872 -6.02,-7.827 -4.678,-13.302 1.342,-5.475 5.612,-8.396 9.538,-6.525zm-1.111 4.532c2.131,1.016 3.268,4.249 2.54,7.221 -0.729,2.972 -3.047,4.558 -5.178,3.542 -2.131,-1.016 -3.268,-4.249 -2.54,-7.221 0.729,-2.972 3.047,-4.558 5.178,-3.542z"/>
   <path class="fil26" style="mask:url(#id2)" d="M270.386 139.128c1.01,-0.643 2.123,-0.977 3.259,-0.947 -0.4,0.407 -0.692,0.856 -0.903,1.418 -0.25,0.665 -0.387,1.49 -0.438,2.052 -0.05,0.562 -0.014,0.861 0.081,1.052 0.066,0.132 0.161,0.212 0.195,0.416 -1.227,0.401 -2.295,1.586 -2.82,3.292 -0.08,-0.087 -0.158,-0.184 -0.229,-0.292 -0.429,-0.649 -0.642,-1.679 -0.494,-2.887 0.147,-1.208 0.654,-2.594 1.191,-3.767 0.052,-0.114 0.105,-0.227 0.158,-0.337z"/>
   <path class="fil25" d="M278.196 129.677c0.551,0.263 1.081,0.57 1.59,0.918l-1.582 6.454c-0.489,-0.397 -1.014,-0.733 -1.57,-0.999 -0.556,-0.265 -1.118,-0.446 -1.68,-0.55l1.583 -6.454c0.555,0.159 1.109,0.369 1.659,0.631z"/>
   <path class="fil25" d="M282.01 132.18c1.038,1.067 1.949,2.327 2.715,3.728l-2.224 9.073c-0.319,-2.209 -1.075,-4.262 -2.181,-5.911l1.69 -6.89z"/>
   <path class="fil25" d="M270.036 130.431c1.221,-0.455 2.494,-0.673 3.784,-0.63l-4.137 16.875 -3.25 -1.549 3.603 -14.696z"/>
  </g>
  <path class="fil5" d="M287.476 145.381c0,10.301 -7.346,18.684 -16.371,18.684 -0.9,0 -1.78,-0.083 -2.641,-0.244 -3.411,-1.638 -6.27,-4.474 -8.18,-8.043 1.305,0.385 2.672,0.586 4.076,0.586 9.026,0 16.368,-8.383 16.368,-18.684 0,-3.172 -0.697,-6.164 -1.926,-8.785 5.156,3.15 8.674,9.357 8.674,16.486z"/>
  <g id="_2109322212592">
   <path class="fil25" d="M226.321 86.225c2.063,-0.395 4.72,2.105 5.932,5.583 1.213,3.478 0.523,6.618 -1.54,7.013 -2.064,0.395 -4.72,-2.105 -5.933,-5.583 -1.213,-3.478 -0.523,-6.618 1.541,-7.013zm1.003 2.879c1.121,-0.214 2.563,1.143 3.221,3.031 0.659,1.888 0.284,3.593 -0.836,3.807 -1.121,0.214 -2.563,-1.143 -3.221,-3.031 -0.658,-1.888 -0.284,-3.593 0.836,-3.807z"/>
   <path class="fil26" style="mask:url(#id4)" d="M224.353 88.44c0.178,-0.717 0.492,-1.301 0.929,-1.695 -0.023,0.367 0.008,0.718 0.105,1.102 0.115,0.453 0.322,0.954 0.479,1.279 0.157,0.326 0.265,0.477 0.361,0.546 0.066,0.049 0.127,0.058 0.203,0.157 -0.335,0.663 -0.365,1.697 -0.027,2.819 -0.058,-0.019 -0.118,-0.044 -0.178,-0.077 -0.365,-0.199 -0.768,-0.686 -1.092,-1.4 -0.323,-0.713 -0.568,-1.655 -0.733,-2.49 -0.017,-0.081 -0.032,-0.162 -0.047,-0.241z"/>
   <path class="fil25" d="M224.326 80.451c0.289,-0.055 0.585,-0.079 0.886,-0.073l1.43 4.101c-0.309,-0.04 -0.612,-0.035 -0.904,0.021 -0.293,0.056 -0.561,0.16 -0.805,0.306l-1.429 -4.101c0.258,-0.113 0.533,-0.199 0.822,-0.254z"/>
   <path class="fil25" d="M226.545 80.442c0.726,0.209 1.463,0.568 2.191,1.057l2.01 5.765c-0.813,-1.093 -1.741,-1.942 -2.674,-2.444l-1.527 -4.378z"/>
   <path class="fil25" d="M221.493 83.811c0.317,-0.69 0.727,-1.269 1.225,-1.711l3.739 10.721 -1.708 0.327 -3.256 -9.337z"/>
  </g>
  <g id="_2109322208432">
   <path class="fil25" d="M158.082 76.107c4.848,1.657 7.434,6.931 5.777,11.778 -1.657,4.848 -6.931,7.435 -11.779,5.777 -4.847,-1.657 -7.434,-6.93 -5.777,-11.778 1.658,-4.848 6.931,-7.434 11.779,-5.777zm-1.372 4.013c2.632,0.899 4.036,3.762 3.136,6.393 -0.899,2.632 -3.762,4.036 -6.394,3.137 -2.632,-0.9 -4.036,-3.763 -3.136,-6.394 0.9,-2.632 3.762,-4.036 6.394,-3.136z"/>
   <path class="fil26" style="mask:url(#id6)" d="M151.228 76.447c1.246,-0.57 2.62,-0.865 4.024,-0.839 -0.495,0.361 -0.855,0.758 -1.116,1.256 -0.309,0.588 -0.477,1.319 -0.54,1.816 -0.063,0.498 -0.019,0.763 0.099,0.932 0.082,0.117 0.199,0.188 0.241,0.368 -1.515,0.355 -2.834,1.405 -3.481,2.916 -0.1,-0.078 -0.196,-0.164 -0.284,-0.259 -0.53,-0.575 -0.793,-1.487 -0.61,-2.557 0.182,-1.069 0.808,-2.297 1.471,-3.335 0.065,-0.101 0.13,-0.201 0.196,-0.298z"/>
   <path class="fil25" d="M160.872 68.079c0.679,0.232 1.334,0.504 1.963,0.812l-1.954 5.715c-0.604,-0.352 -1.252,-0.65 -1.938,-0.885 -0.687,-0.234 -1.381,-0.395 -2.075,-0.487l1.954 -5.715c0.686,0.141 1.37,0.327 2.05,0.56z"/>
   <path class="fil25" d="M165.58 70.294c1.282,0.946 2.407,2.06 3.353,3.301l-2.746 8.035c-0.393,-1.957 -1.327,-3.774 -2.693,-5.235l2.086 -6.101z"/>
   <path class="fil25" d="M150.795 68.745c1.508,-0.402 3.08,-0.595 4.672,-0.557l-5.108 14.942 -4.013 -1.371 4.449 -13.014z"/>
  </g>
  <path class="fil5" d="M163.446 67.748c9.207,4.617 13.408,14.941 9.362,23.01 -0.403,0.804 -0.872,1.554 -1.402,2.251 -2.993,2.314 -6.81,3.599 -10.856,3.707 0.928,-0.995 1.721,-2.126 2.35,-3.382 4.046,-8.068 -0.156,-18.389 -9.364,-23.006 -2.835,-1.422 -5.822,-2.141 -8.716,-2.217 5.127,-3.197 12.253,-3.559 18.626,-0.363z"/>
  <g id="_2109322205552">
   <path class="fil25" d="M168.863 141.863c3.534,1.434 5.42,5.997 4.211,10.192 -1.208,4.195 -5.052,6.433 -8.586,4.999 -3.535,-1.434 -5.42,-5.997 -4.212,-10.192 1.208,-4.195 5.053,-6.433 8.587,-4.999zm-1 3.472c1.918,0.779 2.942,3.256 2.286,5.533 -0.656,2.277 -2.743,3.492 -4.661,2.714 -1.919,-0.779 -2.943,-3.256 -2.287,-5.533 0.656,-2.277 2.743,-3.492 4.662,-2.714z"/>
   <path class="fil26" style="mask:url(#id8)" d="M163.866 142.157c0.909,-0.493 1.91,-0.748 2.934,-0.725 -0.361,0.312 -0.624,0.655 -0.814,1.086 -0.224,0.51 -0.348,1.142 -0.393,1.572 -0.046,0.43 -0.014,0.66 0.072,0.806 0.06,0.102 0.145,0.163 0.176,0.319 -1.105,0.307 -2.066,1.215 -2.539,2.522 -0.072,-0.066 -0.142,-0.141 -0.206,-0.223 -0.386,-0.497 -0.578,-1.287 -0.445,-2.212 0.133,-0.926 0.589,-1.988 1.072,-2.886 0.048,-0.088 0.095,-0.174 0.143,-0.259z"/>
   <path class="fil25" d="M170.897 134.916c0.495,0.201 0.973,0.437 1.431,0.703l-1.424 4.945c-0.441,-0.304 -0.913,-0.562 -1.413,-0.765 -0.501,-0.203 -1.007,-0.342 -1.513,-0.421l1.425 -4.946c0.499,0.122 0.998,0.283 1.494,0.484z"/>
   <path class="fil25" d="M174.33 136.833c0.934,0.819 1.754,1.783 2.444,2.857l-2.002 6.952c-0.287,-1.693 -0.967,-3.266 -1.963,-4.529l1.521 -5.28z"/>
   <path class="fil25" d="M163.551 135.493c1.099,-0.348 2.245,-0.515 3.406,-0.482l-3.724 12.929 -2.926 -1.186 3.244 -11.261z"/>
  </g>
  <path class="fil5" d="M178.641 147.024c0,1.14 -0.114,2.246 -0.336,3.306 -0.348,1.676 -0.945,3.238 -1.756,4.633 -1.073,0.61 -2.153,1.227 -3.245,1.844 -2.716,1.542 -5.465,3.098 -8.1,4.593 -0.409,-0.027 -0.818,-0.074 -1.214,-0.154 -0.006,0 -0.006,0 -0.013,0 -0.758,-0.363 -1.475,-0.798 -2.152,-1.308 -0.148,-0.114 -0.296,-0.228 -0.443,-0.348 -0.027,-0.021 -0.054,-0.041 -0.08,-0.067 -0.101,-0.081 -0.195,-0.161 -0.289,-0.242 -0.073,-0.06 -0.141,-0.121 -0.208,-0.188 -0.154,-0.134 -0.301,-0.275 -0.449,-0.422 -0.255,-0.248 -0.496,-0.516 -0.737,-0.785 -0.403,-0.469 -0.778,-0.958 -1.127,-1.481 -0.08,-0.114 -0.154,-0.228 -0.228,-0.349 -0.121,-0.188 -0.234,-0.376 -0.348,-0.57 -0.061,-0.114 -0.128,-0.228 -0.188,-0.349l-0.007 0c-0.013,-0.033 -0.027,-0.06 -0.047,-0.093 0.107,0.033 0.221,0.06 0.335,0.093 0.899,0.235 1.844,0.356 2.803,0.356 0.905,0 1.79,-0.108 2.642,-0.322 0.04,-0.007 0.087,-0.014 0.127,-0.034 1.046,-0.261 2.039,-0.677 2.964,-1.22 0.275,-0.154 0.543,-0.329 0.805,-0.51 0.187,-0.134 0.382,-0.268 0.563,-0.415 0.536,-0.416 1.039,-0.879 1.508,-1.382 0.161,-0.167 0.316,-0.341 0.463,-0.523 0.322,-0.368 0.617,-0.757 0.892,-1.166 0.731,-1.066 1.334,-2.253 1.777,-3.534 0.516,-1.475 0.818,-3.071 0.871,-4.74 0.014,-0.181 0.014,-0.369 0.014,-0.557 0,-1.173 -0.121,-2.313 -0.362,-3.399 -0.248,-1.194 -0.631,-2.327 -1.127,-3.38 3.842,2.347 6.504,6.893 6.685,12.15 0.007,0.188 0.007,0.376 0.007,0.563z"/>
  <g id="_2109322201936">
   <path class="fil25" d="M237.641 276.852c2.202,-1.3 5.795,0.078 8.025,3.08 2.229,3.001 2.252,6.489 0.05,7.789 -2.202,1.3 -5.795,-0.079 -8.024,-3.08 -2.23,-3.001 -2.253,-6.489 -0.051,-7.789zm1.846 2.484c1.195,-0.706 3.146,0.043 4.356,1.672 1.21,1.63 1.223,3.523 0.028,4.229 -1.196,0.706 -3.146,-0.043 -4.357,-1.672 -1.21,-1.63 -1.222,-3.523 -0.027,-4.229z"/>
   <path class="fil26" style="mask:url(#id10)" d="M236.006 279.958c0.018,-0.805 0.221,-1.535 0.608,-2.126 0.067,0.383 0.19,0.726 0.395,1.073 0.242,0.41 0.6,0.828 0.857,1.09 0.258,0.262 0.415,0.368 0.54,0.397 0.086,0.02 0.156,0.003 0.267,0.07 -0.207,0.819 0.02,1.881 0.68,2.873 -0.069,0.006 -0.142,0.007 -0.218,-0.001 -0.457,-0.043 -1.03,-0.361 -1.57,-0.944 -0.542,-0.584 -1.051,-1.433 -1.447,-2.207 -0.038,-0.076 -0.076,-0.151 -0.112,-0.225z"/>
   <path class="fil25" d="M233.961 271.862c0.309,-0.182 0.633,-0.336 0.969,-0.46l2.629 3.538c-0.354,0.094 -0.691,0.231 -1.003,0.416 -0.311,0.184 -0.585,0.406 -0.819,0.661l-2.629 -3.539c0.26,-0.228 0.544,-0.434 0.853,-0.616z"/>
   <path class="fil25" d="M236.434 270.885c0.861,-0.104 1.774,-0.061 2.709,0.118l3.696 4.974c-1.182,-0.754 -2.432,-1.212 -3.599,-1.315l-2.806 -3.777z"/>
   <path class="fil25" d="M231.649 276.506c0.179,-0.837 0.491,-1.604 0.935,-2.27l6.873 9.251 -1.823 1.076 -5.985 -8.057z"/>
  </g>
  <path class="fil27" d="M324.196 237.552l9.563 0c0.144,0 0.217,0.073 0.217,0.218l0 2.662c0,0.169 -0.048,0.32 -0.145,0.453l-2.318 3.006 2.318 3.006c0.097,0.133 0.145,0.284 0.145,0.453l0 2.662c0,0.145 -0.073,0.217 -0.217,0.217l-9.563 0c-0.06,0 -0.111,-0.021 -0.153,-0.063 -0.043,-0.043 -0.064,-0.094 -0.064,-0.154l0 -12.242c0,-0.061 0.021,-0.112 0.064,-0.154 0.042,-0.042 0.093,-0.064 0.153,-0.064zm7.407 10.377l-2.988 -3.893c-0.06,-0.097 -0.06,-0.188 0,-0.272l2.988 -3.912 -5.306 0 0 8.077 5.306 0z"/>
  <path class="fil27" d="M336.584 237.734c0,-0.061 0.021,-0.112 0.063,-0.154 0.043,-0.043 0.094,-0.064 0.154,-0.064l9.562 0c0.061,0 0.112,0.021 0.154,0.064 0.043,0.042 0.064,0.093 0.064,0.154l0 2.662c0,0.169 -0.055,0.32 -0.163,0.453l-2.862 3.748 4.093 5.343c0.036,0.06 0.039,0.117 0.009,0.172 -0.03,0.054 -0.075,0.081 -0.136,0.081l-2.3 0c-0.241,0 -0.44,-0.097 -0.597,-0.29l-3.966 -5.161c-0.085,-0.096 -0.085,-0.187 0,-0.272l3.567 -4.654 -5.324 0 0 10.16c0,0.145 -0.078,0.217 -0.235,0.217l-1.866 0c-0.06,0 -0.111,-0.021 -0.154,-0.063 -0.042,-0.043 -0.063,-0.094 -0.063,-0.154l0 -12.242z"/>
  <path class="fil27" d="M349.352 237.552l8.385 0c0.072,0 0.123,0.028 0.154,0.082 0.03,0.054 0.021,0.112 -0.028,0.172l-1.34 1.757c-0.157,0.193 -0.356,0.289 -0.597,0.289l-4.474 0 0 2.898 4.528 0c0.145,0 0.217,0.072 0.217,0.217l0 1.847c0,0.157 -0.072,0.236 -0.217,0.236l-4.528 0 0 2.879 5.723 0c0.061,0 0.112,0.021 0.154,0.064 0.042,0.042 0.063,0.093 0.063,0.154l0 1.865c0,0.145 -0.072,0.217 -0.217,0.217l-7.823 0c-0.061,0 -0.112,-0.021 -0.154,-0.063 -0.042,-0.043 -0.063,-0.094 -0.063,-0.154l0 -12.242c0,-0.061 0.021,-0.112 0.063,-0.154 0.042,-0.042 0.093,-0.064 0.154,-0.064z"/>
  <path class="fil27" d="M380.067 237.516l-2.3 0c-0.242,0 -0.441,0.097 -0.598,0.29l-6.519 8.475 0 -8.547c0,-0.061 -0.021,-0.112 -0.064,-0.154 -0.042,-0.043 -0.093,-0.064 -0.154,-0.064l-1.72 0c-0.241,0 -0.441,0.097 -0.598,0.29l-6.501 8.475 0 -8.547c0,-0.061 -0.024,-0.112 -0.073,-0.154 -0.048,-0.043 -0.102,-0.064 -0.163,-0.064l-1.865 0c-0.06,0 -0.111,0.021 -0.154,0.064 -0.042,0.042 -0.063,0.093 -0.063,0.154l0 12.242c0,0.145 0.072,0.217 0.217,0.217l1.721 0c0.241,0 0.44,-0.097 0.597,-0.29l6.52 -8.475 0 8.548c0,0.145 0.072,0.217 0.217,0.217l1.721 0c0.241,0 0.44,-0.097 0.597,-0.29l9.308 -12.133c0.049,-0.049 0.055,-0.103 0.019,-0.163 -0.037,-0.061 -0.085,-0.091 -0.145,-0.091z"/>
  <path class="fil28" d="M377.741 250.012l0 -7.286c0.764,-0.788 1.628,-1.725 2.318,-2.634l0 2.658 5.198 0 0 -4.98c0,-0.061 0.021,-0.112 0.064,-0.154 0.042,-0.043 0.093,-0.064 0.153,-0.064l1.884 0c0.06,0 0.111,0.021 0.154,0.064 0.042,0.042 0.063,0.093 0.063,0.154l0 12.242c0,0.06 -0.021,0.112 -0.063,0.154 -0.043,0.042 -0.094,0.064 -0.154,0.064l-1.884 0c-0.06,0 -0.111,-0.022 -0.153,-0.064 -0.043,-0.042 -0.064,-0.094 -0.064,-0.154l0 -4.962 -5.198 0 0 4.962c0,0.145 -0.078,0.218 -0.235,0.218l-1.865 0c-0.061,0 -0.112,-0.022 -0.154,-0.064 -0.042,-0.042 -0.064,-0.094 -0.064,-0.154z"/>
  <path class="fil27" d="M389.676 243.837c0,-0.93 0.172,-1.796 0.516,-2.599 0.344,-0.803 0.809,-1.497 1.395,-2.083 0.585,-0.586 1.276,-1.044 2.073,-1.376 0.797,-0.332 1.654,-0.492 2.572,-0.48 0.917,0.012 1.774,0.193 2.571,0.543 0.797,0.35 1.488,0.827 2.074,1.431 0.585,0.604 1.047,1.307 1.385,2.11 0.338,0.803 0.501,1.657 0.489,2.562 -0.012,0.918 -0.193,1.775 -0.543,2.572 -0.35,0.797 -0.824,1.491 -1.422,2.082 -0.597,0.592 -1.295,1.054 -2.091,1.386 -0.797,0.332 -1.654,0.498 -2.572,0.498 -0.906,0 -1.754,-0.172 -2.544,-0.516 -0.791,-0.344 -1.476,-0.815 -2.056,-1.413 -0.579,-0.598 -1.032,-1.301 -1.358,-2.11 -0.326,-0.809 -0.489,-1.678 -0.489,-2.607zm2.318 0.09c0,0.592 0.115,1.153 0.344,1.684 0.23,0.532 0.537,0.996 0.924,1.395 0.386,0.398 0.833,0.712 1.34,0.941 0.507,0.23 1.05,0.344 1.63,0.344 0.567,-0.012 1.104,-0.138 1.611,-0.38 0.508,-0.241 0.951,-0.564 1.332,-0.969 0.38,-0.404 0.678,-0.875 0.896,-1.412 0.217,-0.537 0.32,-1.102 0.308,-1.693 0,-0.592 -0.115,-1.154 -0.344,-1.685 -0.23,-0.531 -0.538,-0.993 -0.924,-1.385 -0.386,-0.392 -0.836,-0.703 -1.349,-0.933 -0.513,-0.229 -1.054,-0.344 -1.621,-0.344 -0.567,0.012 -1.105,0.136 -1.612,0.372 -0.507,0.235 -0.947,0.555 -1.322,0.959 -0.374,0.405 -0.67,0.873 -0.887,1.404 -0.217,0.531 -0.326,1.098 -0.326,1.702z"/>
  <path class="fil27" d="M404.49 241.265c0,-0.568 0.118,-1.093 0.354,-1.576 0.235,-0.483 0.555,-0.899 0.959,-1.249 0.405,-0.35 0.876,-0.628 1.413,-0.833 0.537,-0.205 1.108,-0.308 1.711,-0.308 0.942,0 1.76,0.166 2.454,0.498 0.694,0.332 1.216,0.715 1.567,1.15 0.084,0.109 0.078,0.205 -0.019,0.29l-1.249 1.303c-0.048,0.049 -0.106,0.073 -0.172,0.073 -0.067,0 -0.124,-0.03 -0.172,-0.09 -0.109,-0.121 -0.245,-0.242 -0.408,-0.363 -0.163,-0.12 -0.35,-0.232 -0.561,-0.335 -0.211,-0.102 -0.438,-0.184 -0.679,-0.244 -0.242,-0.061 -0.489,-0.091 -0.743,-0.091 -0.302,0 -0.576,0.046 -0.824,0.136 -0.247,0.091 -0.456,0.208 -0.624,0.353 -0.169,0.145 -0.302,0.314 -0.399,0.507 -0.096,0.193 -0.145,0.399 -0.145,0.616 0,0.35 0.115,0.652 0.344,0.905 0.23,0.254 0.574,0.429 1.033,0.526l1.774 0.344c0.58,0.108 1.09,0.28 1.531,0.516 0.44,0.235 0.809,0.516 1.104,0.842 0.296,0.326 0.523,0.691 0.679,1.096 0.157,0.404 0.236,0.83 0.236,1.276 0,0.483 -0.1,0.96 -0.299,1.431 -0.199,0.471 -0.495,0.893 -0.887,1.268 -0.393,0.374 -0.873,0.673 -1.44,0.896 -0.568,0.223 -1.22,0.335 -1.956,0.335 -0.519,0 -1.005,-0.054 -1.458,-0.163 -0.453,-0.108 -0.863,-0.251 -1.231,-0.425 -0.368,-0.176 -0.691,-0.369 -0.969,-0.58 -0.278,-0.211 -0.507,-0.42 -0.688,-0.625 -0.085,-0.084 -0.085,-0.181 0,-0.29l1.141 -1.466c0.036,-0.061 0.087,-0.094 0.154,-0.1 0.066,-0.006 0.123,0.015 0.172,0.063 0.169,0.157 0.356,0.317 0.561,0.48 0.205,0.163 0.429,0.311 0.67,0.444 0.241,0.133 0.501,0.242 0.779,0.326 0.277,0.085 0.573,0.127 0.887,0.127 0.664,0 1.171,-0.145 1.522,-0.435 0.35,-0.29 0.524,-0.664 0.524,-1.123 0,-0.362 -0.129,-0.679 -0.389,-0.95 -0.259,-0.272 -0.643,-0.456 -1.15,-0.553l-1.774 -0.362c-1.015,-0.205 -1.823,-0.622 -2.427,-1.25 -0.604,-0.627 -0.906,-1.424 -0.906,-2.39z"/>
  <path class="fil27" d="M415.192 237.734c0,-0.061 0.021,-0.112 0.063,-0.154 0.042,-0.043 0.093,-0.064 0.154,-0.064l7.859 0c0.242,0 0.441,0.097 0.598,0.29l1.34 1.757c0.049,0.06 0.058,0.117 0.027,0.172 -0.03,0.054 -0.081,0.081 -0.153,0.081l-4.039 0 0 10.16c0,0.145 -0.072,0.217 -0.217,0.217l-1.866 0c-0.144,0 -0.217,-0.072 -0.217,-0.217l0 -10.16 -3.332 0c-0.061,0 -0.112,-0.021 -0.154,-0.063 -0.042,-0.043 -0.063,-0.094 -0.063,-0.154l0 -1.865z"/>
 </g>
</svg>
